<svg width="30" height="30" viewBox="0 0 30 30" fill="none" xmlns="http://www.w3.org/2000/svg">
<g clip-path="url(#clip0_70_70)">
<path d="M15 30C18.9782 30 22.7936 28.4196 25.6066 25.6066C28.4196 22.7936 30 18.9782 30 15C30 11.0218 28.4196 7.20644 25.6066 4.3934C22.7936 1.58035 18.9782 0 15 0C14.694 0 14.4005 0.121566 14.1841 0.337954C13.9677 0.554342 13.8462 0.847827 13.8462 1.15385V4.61538C13.8462 4.9214 13.9677 5.21489 14.1841 5.43128C14.4005 5.64767 14.694 5.76923 15 5.76923C15.306 5.76923 15.5995 5.64767 15.8159 5.43128C16.0323 5.21489 16.1538 4.9214 16.1538 4.61538V2.3595C18.5558 2.57892 20.8454 3.47818 22.7547 4.95195C24.6639 6.42572 26.1138 8.41299 26.9343 10.681C27.7549 12.949 27.9123 15.4039 27.388 17.7582C26.8637 20.1124 25.6795 22.2685 23.974 23.974C22.2685 25.6795 20.1124 26.8637 17.7582 27.388C15.4039 27.9123 12.949 27.7549 10.681 26.9343C8.41299 26.1138 6.42572 24.6639 4.95195 22.7547C3.47818 20.8454 2.57892 18.5558 2.3595 16.1538H4.61538C4.9214 16.1538 5.21489 16.0323 5.43128 15.8159C5.64767 15.5995 5.76923 15.306 5.76923 15C5.76923 14.694 5.64767 14.4005 5.43128 14.1841C5.21489 13.9677 4.9214 13.8462 4.61538 13.8462H1.15385C0.847827 13.8462 0.554342 13.9677 0.337954 14.1841C0.121566 14.4005 0 14.694 0 15C0.00448931 18.9769 1.58628 22.7896 4.39836 25.6016C7.21043 28.4137 11.0231 29.9955 15 30Z" fill="#161616"/>
<path d="M12.7783 14.4098C12.7239 14.6019 12.695 14.8003 12.6923 14.9999C12.6923 15.4563 12.8277 15.9025 13.0812 16.282C13.3348 16.6615 13.6952 16.9573 14.1169 17.1319C14.5386 17.3066 15.0026 17.3523 15.4502 17.2632C15.8979 17.1742 16.3091 16.9544 16.6318 16.6317C16.9545 16.3089 17.1743 15.8977 17.2634 15.4501C17.3524 15.0024 17.3067 14.5384 17.132 14.1168C16.9574 13.6951 16.6616 13.3347 16.2821 13.0811C15.9026 12.8275 15.4564 12.6922 15 12.6922C14.8004 12.6949 14.602 12.7238 14.4099 12.7783L6.00809 4.37643C5.90165 4.26622 5.77433 4.17832 5.63355 4.11785C5.49278 4.05738 5.34137 4.02554 5.18816 4.02421C5.03496 4.02288 4.88302 4.05208 4.74122 4.11009C4.59941 4.16811 4.47058 4.25379 4.36225 4.36212C4.25391 4.47046 4.16823 4.59929 4.11021 4.74109C4.0522 4.8829 4.023 5.03484 4.02434 5.18804C4.02567 5.34125 4.0575 5.49266 4.11797 5.63343C4.17844 5.7742 4.26634 5.90153 4.37655 6.00796L12.7783 14.4098Z" fill="#161616"/>
<path d="M20.7694 14.9998C20.7694 15.3058 20.891 15.5993 21.1074 15.8157C21.3238 16.0321 21.6172 16.1536 21.9233 16.1536H24.2309C24.537 16.1536 24.8305 16.0321 25.0468 15.8157C25.2632 15.5993 25.3848 15.3058 25.3848 14.9998C25.3848 14.6938 25.2632 14.4003 25.0468 14.1839C24.8305 13.9675 24.537 13.8459 24.2309 13.8459H21.9233C21.6172 13.8459 21.3238 13.9675 21.1074 14.1839C20.891 14.4003 20.7694 14.6938 20.7694 14.9998Z" fill="#161616"/>
<path d="M20.7116 7.65641L19.0792 9.28829C18.972 9.39542 18.8869 9.52262 18.8288 9.66262C18.7708 9.80261 18.7409 9.95268 18.7408 10.1042C18.7408 10.2558 18.7706 10.4059 18.8285 10.5459C18.8865 10.686 18.9715 10.8132 19.0786 10.9204C19.1857 11.0276 19.3129 11.1127 19.4529 11.1707C19.5929 11.2288 19.743 11.2587 19.8945 11.2587C20.0461 11.2588 20.1962 11.229 20.3362 11.171C20.4762 11.1131 20.6035 11.0281 20.7107 10.921L22.3435 9.28945C22.4507 9.1823 22.5358 9.05507 22.5939 8.91505C22.6519 8.77502 22.6818 8.62492 22.6819 8.47334C22.6819 8.32175 22.6521 8.17163 22.5942 8.03156C22.5362 7.89149 22.4512 7.76421 22.3441 7.65699C22.2369 7.54976 22.1097 7.46469 21.9697 7.40663C21.8296 7.34857 21.6796 7.31866 21.528 7.3186C21.3764 7.31855 21.2263 7.34835 21.0862 7.40631C20.9461 7.46428 20.8188 7.54926 20.7116 7.65641Z" fill="#161616"/>
</g>
<defs>
<clipPath id="clip0_70_70">
<rect width="30" height="30" fill="white"/>
</clipPath>
</defs>
</svg>
