<svg width="20" height="20" viewBox="0 0 20 20" fill="none" xmlns="http://www.w3.org/2000/svg">
<g clip-path="url(#clip0_310_11253)">
<mask id="mask0_310_11253" style="mask-type:luminance" maskUnits="userSpaceOnUse" x="0" y="0" width="20" height="20">
<path d="M0 0H20V20H0V0Z" fill="white"/>
</mask>
<g mask="url(#mask0_310_11253)">
<path d="M5.83325 4.58329C5.83325 2.28211 7.69874 0.416626 9.99992 0.416626C12.3011 0.416626 14.1666 2.28211 14.1666 4.58329V9.16663C14.1666 11.4678 12.3011 13.3333 9.99992 13.3333C7.69874 13.3333 5.83325 11.4678 5.83325 9.16663V4.58329Z" fill="white"/>
<path d="M10.005 15C10.0033 15 10.0016 15 9.99996 15C9.99829 15 9.99663 15 9.99496 15C7.55059 14.9976 5.4563 13.4916 4.59098 11.354C4.4183 10.9274 3.93247 10.7216 3.50586 10.8942C3.07925 11.0669 2.8734 11.5527 3.04609 11.9793C4.05852 14.4805 6.38211 16.3128 9.16663 16.6208V19.1666C9.16663 19.6269 9.53971 20 9.99996 20C10.4602 20 10.8333 19.6269 10.8333 19.1666V16.621C13.6184 16.3133 15.9425 14.4808 16.9551 11.9793C17.1278 11.5527 16.922 11.0669 16.4954 10.8942C16.0687 10.7216 15.5829 10.9274 15.4102 11.354C14.5448 13.4921 12.4499 14.9982 10.005 15Z" fill="white"/>
</g>
</g>
<defs>
<clipPath id="clip0_310_11253">
<rect width="20" height="20" fill="white"/>
</clipPath>
</defs>
</svg>
