<svg width="16" height="16" viewBox="0 0 16 16" fill="none" xmlns="http://www.w3.org/2000/svg">
<g clip-path="url(#clip0_67_2868)">
<path fill-rule="evenodd" clip-rule="evenodd" d="M7.22656 11.4362V8.77437H4.56375C3.54687 8.77437 3.54687 7.22687 4.56375 7.22687H7.22656V4.56406C7.22656 3.54719 8.77406 3.54719 8.77406 4.56406V7.22687H11.4359C12.4528 7.22687 12.4528 8.77437 11.4359 8.77437H8.77406V11.4362C8.77406 12.4531 7.22656 12.4531 7.22656 11.4362ZM8 16C12.4184 16 16 12.4187 16 8C16 3.58156 12.4184 0 8 0C3.58156 0 0 3.58156 0 8C0 12.4184 3.58156 16 8 16Z" fill="#8E98A4"/>
</g>
<defs>
<clipPath id="clip0_67_2868">
<rect width="16" height="16" fill="white"/>
</clipPath>
</defs>
</svg>
