<svg width="16" height="16" viewBox="0 0 16 16" fill="none" xmlns="http://www.w3.org/2000/svg">
<path d="M12.3653 1.33325H6.30144C5.03257 1.33325 4.00004 2.36579 4.00004 3.63465V3.99992H3.63477C2.36591 3.99992 1.33337 5.03245 1.33337 6.30132V12.3651C1.33337 13.6341 2.36591 14.6666 3.63477 14.6666H9.69857C10.8642 14.6666 11.82 13.7921 11.9695 12.6666H12.3652C13.6342 12.6666 14.6667 11.6341 14.6667 10.3652V3.63465C14.6667 2.36579 13.6342 1.33325 12.3653 1.33325ZM13.3334 10.3652C13.3334 10.899 12.8991 11.3333 12.3653 11.3333H12V6.30132C12 5.03245 10.9675 3.99992 9.69864 3.99992H5.33337V3.63465C5.33337 3.10085 5.76764 2.66659 6.30144 2.66659H12.3652C12.8991 2.66659 13.3334 3.10085 13.3334 3.63465V10.3652Z" fill="#8E98A4"/>
</svg>
