<svg width="16" height="16" viewBox="0 0 16 16" fill="none" xmlns="http://www.w3.org/2000/svg">
<path fill-rule="evenodd" clip-rule="evenodd" d="M1.28502 2.69007L6.0936 7.35137C7.14237 8.36561 8.85673 8.36649 9.90636 7.35137L14.7149 2.69007C14.7634 2.64314 14.7563 2.56587 14.7001 2.52791C14.2097 2.19648 13.613 2 12.9702 2H3.02984C2.38701 2 1.79029 2.19652 1.29983 2.52791C1.24365 2.56587 1.2366 2.64314 1.28502 2.69007ZM0 4.93573C0 4.44595 0.125325 3.98319 0.346077 3.57645C0.380598 3.51282 0.4681 3.49995 0.520559 3.55078L5.26827 8.15108C6.77171 9.60996 9.22738 9.61081 10.7317 8.15108L15.4794 3.55078C15.5319 3.49995 15.6194 3.51282 15.6539 3.57645C15.8746 3.98319 16 4.44599 16 4.93573V11.0642C16 12.6842 14.64 14 12.9702 14H3.02984C1.36004 14 0 12.6842 0 11.0642V4.93573Z" fill="#8E98A4"/>
</svg>
