<svg width="16" height="16" viewBox="0 0 16 16" fill="none" xmlns="http://www.w3.org/2000/svg">
<g clip-path="url(#clip0_303_356)">
<path d="M12.0135 12.0591C11.778 12.0591 11.5553 12.1149 11.3576 12.2136L10.3355 11.1916C10.2476 11.1037 10.1283 11.0542 10.0039 11.0542H8.46326V11.9923H9.8096L10.6943 12.877C10.2011 13.831 10.9348 15.0212 12.0136 15.0068C13.9661 14.9329 13.9658 12.1329 12.0135 12.0591Z" fill="#8E98A4"/>
<path d="M14.5256 8.54212C13.8769 8.54212 13.3251 8.96359 13.1287 9.54695H12.2078L11.3404 8.67949C11.2525 8.59152 11.1331 8.54208 11.0087 8.54208H8.46329V9.48021H10.8145L11.6819 10.3477C11.7699 10.4356 11.8892 10.4851 12.0136 10.4851H13.1288C13.6795 12.0452 15.9667 11.6902 15.9996 10.016C15.9996 9.20331 15.3383 8.54212 14.5256 8.54212Z" fill="#8E98A4"/>
<path d="M10.3355 4.82109L11.3576 3.79906C12.3115 4.29223 13.5019 3.55846 13.4875 2.4797C13.4875 1.667 12.8263 1.0058 12.0136 1.0058C10.9349 0.991482 10.201 2.18178 10.6943 3.1357L9.8096 4.02033H8.46326V4.95846H10.0039C10.1283 4.95846 10.2476 4.90905 10.3355 4.82109Z" fill="#8E98A4"/>
<path d="M11.3404 7.33318L12.2078 6.46572H13.1287C13.6792 8.02562 15.9667 7.671 15.9995 5.99663C15.9665 4.32203 13.6789 3.96792 13.1287 5.52759H12.0135C11.8891 5.52759 11.7698 5.57703 11.6819 5.665L10.8144 6.53246H8.46323V7.47059H11.0087C11.1331 7.47059 11.2524 7.42115 11.3404 7.33318Z" fill="#8E98A4"/>
<path d="M5.73433 0.000969762C4.11865 -0.0550992 3.255 2.33835 4.60441 2.45265C4.86346 2.45262 5.07348 2.66263 5.07348 2.92168C5.07348 3.18073 4.86346 3.39075 4.60441 3.39075C3.8859 3.39075 3.27667 2.9143 3.07576 2.26083H2.90955C1.92211 2.26083 1.11876 3.06415 1.11876 4.05163C1.11876 4.72755 1.66866 5.27745 2.34458 5.27745C2.96581 5.30016 2.96618 6.19269 2.34458 6.21558H1.77958C-0.593488 6.30589 -0.591674 9.70771 1.77958 9.79714H2.34455C2.96618 9.82032 2.96587 10.7123 2.34455 10.7353C1.66863 10.7353 1.11872 11.2852 1.11872 11.9611C1.11872 12.9485 1.92208 13.7519 2.90952 13.7519H3.07573C3.27667 13.0984 3.88587 12.622 4.60438 12.622C4.86343 12.622 5.07344 12.832 5.07344 13.091C5.07344 13.3501 4.86343 13.5601 4.60438 13.5601C4.23998 13.5601 3.94353 13.8566 3.94353 14.221C4.03328 16.5931 7.43544 16.593 7.52509 14.221V10.8312C7.47737 9.581 5.68557 9.58216 5.63842 10.8312C5.63842 11.0902 5.4284 11.3002 5.16935 11.3002C4.9103 11.3002 4.70029 11.0902 4.70029 10.8312C4.68012 9.40179 6.30821 8.47028 7.52509 9.20434V6.80842C6.30784 7.54238 4.68021 6.61097 4.70032 5.18154C4.70029 4.92253 4.9103 4.71251 5.16935 4.71251C5.4284 4.71251 5.63842 4.92253 5.63842 5.18158C5.68586 6.43151 7.478 6.43076 7.52509 5.18158V1.7918C7.52512 0.804291 6.72177 0.000969762 5.73433 0.000969762Z" fill="#8E98A4"/>
</g>
<defs>
<clipPath id="clip0_303_356">
<rect width="16" height="16" fill="white"/>
</clipPath>
</defs>
</svg>
