<svg width="16" height="16" viewBox="0 0 16 16" fill="none" xmlns="http://www.w3.org/2000/svg">
<g clip-path="url(#clip0_456_1194)">
<path d="M7.99998 5.33333C9.47274 5.33333 10.6666 4.13943 10.6666 2.66667C10.6666 1.19391 9.47274 0 7.99998 0C6.52722 0 5.33331 1.19391 5.33331 2.66667C5.33331 4.13943 6.52722 5.33333 7.99998 5.33333Z" fill="#8E98A4"/>
<path d="M2.80668 14.3333C4.27944 14.3333 5.47335 13.1394 5.47335 11.6667C5.47335 10.1939 4.27944 9 2.80668 9C1.33392 9 0.140015 10.1939 0.140015 11.6667C0.140015 13.1394 1.33392 14.3333 2.80668 14.3333Z" fill="#8E98A4"/>
<path d="M1.96321 8.66272C1.98788 8.66533 2.01267 8.66664 2.03748 8.66666C2.20144 8.66644 2.35957 8.6058 2.48164 8.49635C2.60372 8.38689 2.68118 8.23629 2.69921 8.07332C2.77465 7.38178 2.98559 6.71187 3.32 6.10187C3.6544 5.49187 4.10571 4.95373 4.64814 4.51819C4.78218 4.40591 4.86675 4.24548 4.88362 4.07145C4.90049 3.89742 4.84831 3.72372 4.73834 3.5878C4.62836 3.45187 4.46938 3.36459 4.29566 3.34476C4.12195 3.32493 3.94739 3.37414 3.80961 3.48179C3.13158 4.02641 2.56748 4.69926 2.14952 5.46192C1.73155 6.22458 1.46792 7.0621 1.37368 7.92666C1.35438 8.10242 1.40563 8.27865 1.51616 8.41666C1.62669 8.55466 1.78748 8.64316 1.96321 8.66272Z" fill="#8E98A4"/>
<path d="M9.778 13.6966C8.62681 14.0989 7.37319 14.0989 6.222 13.6966C6.05521 13.6377 5.87185 13.6475 5.71228 13.7238C5.55271 13.8001 5.42998 13.9367 5.3711 14.1035C5.31222 14.2703 5.32202 14.4536 5.39832 14.6132C5.47463 14.7728 5.61121 14.8955 5.778 14.9544C7.21625 15.4596 8.78375 15.4596 10.222 14.9544C10.3888 14.8955 10.5254 14.7728 10.6017 14.6132C10.678 14.4536 10.6878 14.2703 10.6289 14.1035C10.57 13.9367 10.4473 13.8001 10.2877 13.7238C10.1281 13.6475 9.9448 13.6377 9.778 13.6966Z" fill="#8E98A4"/>
<path d="M13.3008 8.07333C13.3189 8.23629 13.3963 8.3869 13.5184 8.49636C13.6405 8.60581 13.7986 8.66644 13.9626 8.66666C13.9874 8.66665 14.0121 8.66534 14.0368 8.66273C14.1239 8.65317 14.2082 8.62654 14.285 8.58437C14.3618 8.5422 14.4295 8.4853 14.4843 8.41694C14.5391 8.34858 14.5799 8.2701 14.6043 8.18597C14.6287 8.10185 14.6363 8.01373 14.6267 7.92666C14.4456 6.29648 13.6688 4.79063 12.4454 3.6982C12.3133 3.58219 12.1409 3.523 11.9654 3.53351C11.79 3.54402 11.6258 3.62337 11.5086 3.7543C11.3914 3.88523 11.3306 4.05715 11.3395 4.23267C11.3484 4.40819 11.4262 4.5731 11.556 4.69153C12.5348 5.565 13.1562 6.76944 13.3008 8.07333Z" fill="#8E98A4"/>
<path d="M13.1933 14.3333C14.6661 14.3333 15.86 13.1394 15.86 11.6667C15.86 10.1939 14.6661 9 13.1933 9C11.7206 9 10.5267 10.1939 10.5267 11.6667C10.5267 13.1394 11.7206 14.3333 13.1933 14.3333Z" fill="#8E98A4"/>
</g>
<defs>
<clipPath id="clip0_456_1194">
<rect width="16" height="16" fill="white"/>
</clipPath>
</defs>
</svg>
