<svg width="116" height="44" viewBox="0 0 116 44" fill="none" xmlns="http://www.w3.org/2000/svg">
<rect width="116" height="44" rx="6" fill="#161616"/>
<g clip-path="url(#clip0_732_5598)">
<path d="M30.2727 19.8182C29.8364 19.8182 29.5455 19.5273 29.5455 19.0909V16.9091C29.5455 16.1091 28.8909 15.4545 28.0909 15.4545H25.9091C25.4727 15.4545 25.1818 15.1636 25.1818 14.7273C25.1818 14.2909 25.4727 14 25.9091 14H28.0909C29.6909 14 31 15.3091 31 16.9091V19.0909C31 19.5273 30.7091 19.8182 30.2727 19.8182ZM20.8182 29.2727C20.8182 28.8364 20.5273 28.5455 20.0909 28.5455H17.9091C17.1091 28.5455 16.4545 27.8909 16.4545 27.0909V24.9091C16.4545 24.4727 16.1636 24.1818 15.7273 24.1818C15.2909 24.1818 15 24.4727 15 24.9091V27.0909C15 28.6909 16.3091 30 17.9091 30H20.0909C20.5273 30 20.8182 29.7091 20.8182 29.2727ZM16.4545 19.0909V16.9091C16.4545 16.1091 17.1091 15.4545 17.9091 15.4545H20.0909C20.5273 15.4545 20.8182 15.1636 20.8182 14.7273C20.8182 14.2909 20.5273 14 20.0909 14H17.9091C16.3091 14 15 15.3091 15 16.9091V19.0909C15 19.5273 15.2909 19.8182 15.7273 19.8182C16.1636 19.8182 16.4545 19.5273 16.4545 19.0909ZM31 27.0909V24.9091C31 24.4727 30.7091 24.1818 30.2727 24.1818C29.8364 24.1818 29.5455 24.4727 29.5455 24.9091V27.0909C29.5455 27.8909 28.8909 28.5455 28.0909 28.5455H25.9091C25.4727 28.5455 25.1818 28.8364 25.1818 29.2727C25.1818 29.7091 25.4727 30 25.9091 30H28.0909C29.6909 30 31 28.6909 31 27.0909Z" fill="white"/>
<path d="M27.56 24.1949L26.1345 20.8611C25.8749 20.2508 25.4878 19.9047 25.046 19.8819C24.6088 19.8592 24.1852 20.1643 23.8619 20.7472L22.9966 22.3003C22.8144 22.6282 22.5548 22.824 22.2724 22.8468C21.9855 22.8741 21.6986 22.7238 21.4663 22.4278L21.3661 22.3003C21.0427 21.8949 20.642 21.6991 20.2321 21.7401C19.8222 21.7811 19.4715 22.0635 19.2392 22.5234L18.4513 24.0947C18.169 24.664 18.1963 25.3243 18.5288 25.8618C18.8612 26.3992 19.4396 26.7225 20.0727 26.7225H25.884C26.4943 26.7225 27.0636 26.4174 27.4006 25.9073C27.7467 25.3972 27.8014 24.7551 27.56 24.1949Z" fill="white"/>
<path d="M20.7064 20.3514C21.5565 20.3514 22.2457 19.6622 22.2457 18.8121C22.2457 17.9619 21.5565 17.2727 20.7064 17.2727C19.8562 17.2727 19.167 17.9619 19.167 18.8121C19.167 19.6622 19.8562 20.3514 20.7064 20.3514Z" fill="white"/>
</g>
<path d="M43.958 25.138H40.066L39.422 27H37.364L40.878 17.214H43.16L46.674 27H44.602L43.958 25.138ZM43.426 23.57L42.012 19.482L40.598 23.57H43.426ZM47.4835 23.094C47.4835 22.31 47.6375 21.6147 47.9455 21.008C48.2628 20.4013 48.6922 19.9347 49.2335 19.608C49.7748 19.2813 50.3768 19.118 51.0395 19.118C51.5435 19.118 52.0242 19.23 52.4815 19.454C52.9388 19.6687 53.3028 19.958 53.5735 20.322V16.64H55.5615V27H53.5735V25.852C53.3308 26.2347 52.9902 26.5427 52.5515 26.776C52.1128 27.0093 51.6042 27.126 51.0255 27.126C50.3722 27.126 49.7748 26.958 49.2335 26.622C48.6922 26.286 48.2628 25.8147 47.9455 25.208C47.6375 24.592 47.4835 23.8873 47.4835 23.094ZM53.5875 23.122C53.5875 22.646 53.4942 22.24 53.3075 21.904C53.1208 21.5587 52.8688 21.2973 52.5515 21.12C52.2342 20.9333 51.8935 20.84 51.5295 20.84C51.1655 20.84 50.8295 20.9287 50.5215 21.106C50.2135 21.2833 49.9615 21.5447 49.7655 21.89C49.5788 22.226 49.4855 22.6273 49.4855 23.094C49.4855 23.5607 49.5788 23.9713 49.7655 24.326C49.9615 24.6713 50.2135 24.9373 50.5215 25.124C50.8388 25.3107 51.1748 25.404 51.5295 25.404C51.8935 25.404 52.2342 25.3153 52.5515 25.138C52.8688 24.9513 53.1208 24.69 53.3075 24.354C53.4942 24.0087 53.5875 23.598 53.5875 23.122ZM56.9718 23.094C56.9718 22.31 57.1258 21.6147 57.4338 21.008C57.7511 20.4013 58.1804 19.9347 58.7218 19.608C59.2631 19.2813 59.8651 19.118 60.5278 19.118C61.0318 19.118 61.5124 19.23 61.9698 19.454C62.4271 19.6687 62.7911 19.958 63.0618 20.322V16.64H65.0498V27H63.0618V25.852C62.8191 26.2347 62.4784 26.5427 62.0398 26.776C61.6011 27.0093 61.0924 27.126 60.5138 27.126C59.8604 27.126 59.2631 26.958 58.7218 26.622C58.1804 26.286 57.7511 25.8147 57.4338 25.208C57.1258 24.592 56.9718 23.8873 56.9718 23.094ZM63.0758 23.122C63.0758 22.646 62.9824 22.24 62.7958 21.904C62.6091 21.5587 62.3571 21.2973 62.0398 21.12C61.7224 20.9333 61.3818 20.84 61.0178 20.84C60.6538 20.84 60.3178 20.9287 60.0098 21.106C59.7018 21.2833 59.4498 21.5447 59.2538 21.89C59.0671 22.226 58.9738 22.6273 58.9738 23.094C58.9738 23.5607 59.0671 23.9713 59.2538 24.326C59.4498 24.6713 59.7018 24.9373 60.0098 25.124C60.3271 25.3107 60.6631 25.404 61.0178 25.404C61.3818 25.404 61.7224 25.3153 62.0398 25.138C62.3571 24.9513 62.6091 24.69 62.7958 24.354C62.9824 24.0087 63.0758 23.598 63.0758 23.122ZM72.26 16.64V27H70.3V16.64H72.26ZM77.6405 27.126C76.8938 27.126 76.2218 26.9627 75.6245 26.636C75.0271 26.3 74.5558 25.8287 74.2105 25.222C73.8745 24.6153 73.7065 23.9153 73.7065 23.122C73.7065 22.3287 73.8791 21.6287 74.2245 21.022C74.5791 20.4153 75.0598 19.9487 75.6665 19.622C76.2731 19.286 76.9498 19.118 77.6965 19.118C78.4431 19.118 79.1198 19.286 79.7265 19.622C80.3331 19.9487 80.8091 20.4153 81.1545 21.022C81.5091 21.6287 81.6865 22.3287 81.6865 23.122C81.6865 23.9153 81.5045 24.6153 81.1405 25.222C80.7858 25.8287 80.3005 26.3 79.6845 26.636C79.0778 26.9627 78.3965 27.126 77.6405 27.126ZM77.6405 25.418C77.9951 25.418 78.3265 25.334 78.6345 25.166C78.9518 24.9887 79.2038 24.7273 79.3905 24.382C79.5771 24.0367 79.6705 23.6167 79.6705 23.122C79.6705 22.3847 79.4745 21.82 79.0825 21.428C78.6998 21.0267 78.2285 20.826 77.6685 20.826C77.1085 20.826 76.6371 21.0267 76.2545 21.428C75.8811 21.82 75.6945 22.3847 75.6945 23.122C75.6945 23.8593 75.8765 24.4287 76.2405 24.83C76.6138 25.222 77.0805 25.418 77.6405 25.418ZM86.1622 19.118C86.7409 19.118 87.2495 19.2347 87.6882 19.468C88.1269 19.692 88.4722 19.986 88.7242 20.35V19.244H90.6982V27.056C90.6982 27.7747 90.5535 28.414 90.2642 28.974C89.9749 29.5433 89.5409 29.9913 88.9622 30.318C88.3835 30.654 87.6835 30.822 86.8622 30.822C85.7609 30.822 84.8555 30.5653 84.1462 30.052C83.4462 29.5387 83.0495 28.8387 82.9562 27.952H84.9022C85.0049 28.3067 85.2242 28.5867 85.5602 28.792C85.9055 29.0067 86.3209 29.114 86.8062 29.114C87.3755 29.114 87.8375 28.9413 88.1922 28.596C88.5469 28.26 88.7242 27.7467 88.7242 27.056V25.852C88.4722 26.216 88.1222 26.5193 87.6742 26.762C87.2355 27.0047 86.7315 27.126 86.1622 27.126C85.5089 27.126 84.9115 26.958 84.3702 26.622C83.8289 26.286 83.3995 25.8147 83.0822 25.208C82.7742 24.592 82.6202 23.8873 82.6202 23.094C82.6202 22.31 82.7742 21.6147 83.0822 21.008C83.3995 20.4013 83.8242 19.9347 84.3562 19.608C84.8975 19.2813 85.4995 19.118 86.1622 19.118ZM88.7242 23.122C88.7242 22.646 88.6309 22.24 88.4442 21.904C88.2575 21.5587 88.0055 21.2973 87.6882 21.12C87.3709 20.9333 87.0302 20.84 86.6662 20.84C86.3022 20.84 85.9662 20.9287 85.6582 21.106C85.3502 21.2833 85.0982 21.5447 84.9022 21.89C84.7155 22.226 84.6222 22.6273 84.6222 23.094C84.6222 23.5607 84.7155 23.9713 84.9022 24.326C85.0982 24.6713 85.3502 24.9373 85.6582 25.124C85.9755 25.3107 86.3115 25.404 86.6662 25.404C87.0302 25.404 87.3709 25.3153 87.6882 25.138C88.0055 24.9513 88.2575 24.69 88.4442 24.354C88.6309 24.0087 88.7242 23.598 88.7242 23.122ZM96.0565 27.126C95.3098 27.126 94.6378 26.9627 94.0405 26.636C93.4432 26.3 92.9718 25.8287 92.6265 25.222C92.2905 24.6153 92.1225 23.9153 92.1225 23.122C92.1225 22.3287 92.2952 21.6287 92.6405 21.022C92.9952 20.4153 93.4758 19.9487 94.0825 19.622C94.6892 19.286 95.3658 19.118 96.1125 19.118C96.8592 19.118 97.5358 19.286 98.1425 19.622C98.7492 19.9487 99.2252 20.4153 99.5705 21.022C99.9252 21.6287 100.102 22.3287 100.102 23.122C100.102 23.9153 99.9205 24.6153 99.5565 25.222C99.2018 25.8287 98.7165 26.3 98.1005 26.636C97.4938 26.9627 96.8125 27.126 96.0565 27.126ZM96.0565 25.418C96.4112 25.418 96.7425 25.334 97.0505 25.166C97.3678 24.9887 97.6198 24.7273 97.8065 24.382C97.9932 24.0367 98.0865 23.6167 98.0865 23.122C98.0865 22.3847 97.8905 21.82 97.4985 21.428C97.1158 21.0267 96.6445 20.826 96.0845 20.826C95.5245 20.826 95.0532 21.0267 94.6705 21.428C94.2972 21.82 94.1105 22.3847 94.1105 23.122C94.1105 23.8593 94.2925 24.4287 94.6565 24.83C95.0298 25.222 95.4965 25.418 96.0565 25.418Z" fill="white"/>
<defs>
<clipPath id="clip0_732_5598">
<rect width="16" height="16" fill="white" transform="translate(15 14)"/>
</clipPath>
</defs>
</svg>
