<svg width="16" height="16" viewBox="0 0 16 16" fill="none" xmlns="http://www.w3.org/2000/svg">
<path fill-rule="evenodd" clip-rule="evenodd" d="M13.0233 5.02324C13.0233 3.89281 12.1072 2.97672 10.9768 2.97672H5.02324C3.89281 2.97672 2.97672 3.89281 2.97672 5.02324V10.9768C2.97672 12.1072 3.89281 13.0233 5.02324 13.0233H10.9768C12.1072 13.0233 13.0233 12.1072 13.0233 10.9768V5.02324ZM9.48838 6.51162V9.48838C9.48838 9.79647 9.73842 10.0465 10.0465 10.0465C10.3546 10.0465 10.6047 9.79647 10.6047 9.48838V6.51162C10.6047 6.20352 10.3546 5.95347 10.0465 5.95347C9.73842 5.95347 9.48838 6.20352 9.48838 6.51162ZM8.74419 9.48838V7.25581C8.74419 6.53692 8.16149 5.95347 7.44185 5.95347H6.69766C5.97803 5.95347 5.39533 6.53692 5.39533 7.25581V9.48838C5.39533 9.79647 5.64538 10.0465 5.95347 10.0465C6.26157 10.0465 6.51162 9.79647 6.51162 9.48838V8.93023H7.6279V9.48838C7.6279 9.79647 7.87795 10.0465 8.18604 10.0465C8.49414 10.0465 8.74419 9.79647 8.74419 9.48838ZM6.51162 7.81395H7.6279V7.25581C7.6279 7.15311 7.54455 7.06976 7.44185 7.06976H6.69766C6.59497 7.06976 6.51162 7.15311 6.51162 7.25581V7.81395Z" fill="#8E98A4"/>
<path fill-rule="evenodd" clip-rule="evenodd" d="M12.4651 8.55815H15.4419C15.75 8.55815 16 8.3081 16 8.00001C16 7.69191 15.75 7.44186 15.4419 7.44186H12.4651C12.157 7.44186 11.907 7.69191 11.907 8.00001C11.907 8.3081 12.157 8.55815 12.4651 8.55815Z" fill="#8E98A4"/>
<path fill-rule="evenodd" clip-rule="evenodd" d="M8.55815 3.5349V0.558142C8.55815 0.250048 8.3081 0 8.00001 0C7.69191 0 7.44186 0.250048 7.44186 0.558142V3.5349C7.44186 3.843 7.69191 4.09304 8.00001 4.09304C8.3081 4.09304 8.55815 3.843 8.55815 3.5349Z" fill="#8E98A4"/>
<path fill-rule="evenodd" clip-rule="evenodd" d="M7.44186 12.4651V15.4419C7.44186 15.75 7.69191 16 8.00001 16C8.3081 16 8.55815 15.75 8.55815 15.4419V12.4651C8.55815 12.157 8.3081 11.907 8.00001 11.907C7.69191 11.907 7.44186 12.157 7.44186 12.4651Z" fill="#8E98A4"/>
<path fill-rule="evenodd" clip-rule="evenodd" d="M3.5349 7.44186H0.558142C0.250048 7.44186 0 7.69191 0 8.00001C0 8.3081 0.250048 8.55815 0.558142 8.55815H3.5349C3.843 8.55815 4.09304 8.3081 4.09304 8.00001C4.09304 7.69191 3.843 7.44186 3.5349 7.44186Z" fill="#8E98A4"/>
<path fill-rule="evenodd" clip-rule="evenodd" d="M12.4651 6.32557H14.3256C14.6337 6.32557 14.8837 6.07553 14.8837 5.76743C14.8837 5.45934 14.6337 5.20929 14.3256 5.20929H12.4651C12.157 5.20929 11.907 5.45934 11.907 5.76743C11.907 6.07553 12.157 6.32557 12.4651 6.32557Z" fill="#8E98A4"/>
<path fill-rule="evenodd" clip-rule="evenodd" d="M6.32557 3.53489V1.67441C6.32557 1.36632 6.07553 1.11627 5.76743 1.11627C5.45934 1.11627 5.20929 1.36632 5.20929 1.67441V3.53489C5.20929 3.84298 5.45934 4.09303 5.76743 4.09303C6.07553 4.09303 6.32557 3.84298 6.32557 3.53489Z" fill="#8E98A4"/>
<path fill-rule="evenodd" clip-rule="evenodd" d="M5.20929 12.4651V14.3256C5.20929 14.6337 5.45934 14.8837 5.76743 14.8837C6.07553 14.8837 6.32557 14.6337 6.32557 14.3256V12.4651C6.32557 12.157 6.07553 11.907 5.76743 11.907C5.45934 11.907 5.20929 12.157 5.20929 12.4651Z" fill="#8E98A4"/>
<path fill-rule="evenodd" clip-rule="evenodd" d="M3.53489 5.20929H1.67441C1.36632 5.20929 1.11627 5.45934 1.11627 5.76743C1.11627 6.07553 1.36632 6.32557 1.67441 6.32557H3.53489C3.84298 6.32557 4.09303 6.07553 4.09303 5.76743C4.09303 5.45934 3.84298 5.20929 3.53489 5.20929Z" fill="#8E98A4"/>
<path fill-rule="evenodd" clip-rule="evenodd" d="M12.4651 10.7907H14.3256C14.6337 10.7907 14.8837 10.5406 14.8837 10.2326C14.8837 9.92446 14.6337 9.67441 14.3256 9.67441H12.4651C12.157 9.67441 11.907 9.92446 11.907 10.2326C11.907 10.5406 12.157 10.7907 12.4651 10.7907Z" fill="#8E98A4"/>
<path fill-rule="evenodd" clip-rule="evenodd" d="M10.7907 3.53489V1.67441C10.7907 1.36632 10.5406 1.11627 10.2326 1.11627C9.92446 1.11627 9.67441 1.36632 9.67441 1.67441V3.53489C9.67441 3.84298 9.92446 4.09303 10.2326 4.09303C10.5406 4.09303 10.7907 3.84298 10.7907 3.53489Z" fill="#8E98A4"/>
<path fill-rule="evenodd" clip-rule="evenodd" d="M9.67441 12.4651V14.3256C9.67441 14.6337 9.92446 14.8837 10.2326 14.8837C10.5406 14.8837 10.7907 14.6337 10.7907 14.3256V12.4651C10.7907 12.157 10.5406 11.907 10.2326 11.907C9.92446 11.907 9.67441 12.157 9.67441 12.4651Z" fill="#8E98A4"/>
<path fill-rule="evenodd" clip-rule="evenodd" d="M3.53489 9.67441H1.67441C1.36632 9.67441 1.11627 9.92446 1.11627 10.2326C1.11627 10.5406 1.36632 10.7907 1.67441 10.7907H3.53489C3.84298 10.7907 4.09303 10.5406 4.09303 10.2326C4.09303 9.92446 3.84298 9.67441 3.53489 9.67441Z" fill="#8E98A4"/>
</svg>
