<svg width="30" height="30" viewBox="0 0 30 30" fill="none" xmlns="http://www.w3.org/2000/svg">
<g clip-path="url(#clip0_96_300)">
<path d="M14.9707 5.04639C9.76891 5.04639 5.53711 9.27818 5.53711 14.4798C5.53711 17.9395 7.42676 21.1166 10.4686 22.7715C10.7648 22.9326 10.9277 23.2068 10.9277 23.5435V25.957C10.9277 28.1863 12.7414 30 14.9707 30C17.2 30 19.0137 28.1863 19.0137 25.957V23.5435C19.0137 23.2066 19.1766 22.9324 19.4726 22.7715C22.5146 21.1169 24.4043 17.9395 24.4043 14.4798C24.4043 9.27818 20.1723 5.04639 14.9707 5.04639ZM14.9707 28.2422C13.7105 28.2422 12.6855 27.217 12.6855 25.957V24.4336H17.2559V25.957C17.2559 27.217 16.2307 28.2422 14.9707 28.2422ZM18.6326 21.2272C18.0368 21.5515 17.6072 22.0654 17.3985 22.6758H15.8496V16.8684L17.5747 15.1433C17.918 14.8 17.918 14.2435 17.5747 13.9002C17.2316 13.5569 16.675 13.5569 16.3316 13.9002L14.9707 15.2614L13.6095 13.9002C13.2662 13.5569 12.7098 13.5569 12.3665 13.9002C12.0234 14.2433 12.0234 14.8 12.3665 15.1431L14.0918 16.8684V22.6758H12.543C12.3342 22.0654 11.9046 21.5515 11.3088 21.2272C8.83278 19.8804 7.29492 17.295 7.29492 14.4798C7.29492 10.2475 10.7382 6.80397 14.9707 6.80397C19.203 6.80397 22.6465 10.2475 22.6465 14.4798C22.6465 17.2952 21.1084 19.8807 18.6326 21.2272Z" fill="#161616"/>
<path d="M14.9705 3.33984C15.4559 3.33984 15.8494 2.9464 15.8494 2.46094V0.878906C15.8494 0.393448 15.4559 0 14.9705 0C14.4852 0 14.0916 0.393448 14.0916 0.878906V2.46094C14.0916 2.9464 14.4852 3.33984 14.9705 3.33984Z" fill="#161616"/>
<path d="M28.5938 13.623H27.0117C26.5263 13.623 26.1328 14.0165 26.1328 14.502C26.1328 14.9874 26.5263 15.3809 27.0117 15.3809H28.5938C29.079 15.3809 29.4727 14.9874 29.4727 14.502C29.4727 14.0165 29.079 13.623 28.5938 13.623Z" fill="#161616"/>
<path d="M3.80859 14.502C3.80859 14.0165 3.41515 13.623 2.92969 13.623H1.34766C0.862198 13.623 0.46875 14.0165 0.46875 14.502C0.46875 14.9874 0.862198 15.3809 1.34766 15.3809H2.92969C3.41515 15.3809 3.80859 14.9874 3.80859 14.502Z" fill="#161616"/>
<path d="M4.98235 7.72055L3.61226 6.92953C3.19181 6.68669 2.65439 6.83066 2.41155 7.25111C2.16894 7.67157 2.3129 8.20898 2.73336 8.4516L4.10345 9.24284C4.24192 9.32272 4.39298 9.36072 4.54198 9.36072C4.84571 9.36072 5.1412 9.20302 5.30393 8.92103C5.54677 8.50058 5.40281 7.96316 4.98235 7.72055Z" fill="#161616"/>
<path d="M8.18889 4.51367C8.35163 4.79566 8.64712 4.95336 8.95084 4.95336C9.10007 4.95336 9.25113 4.91536 9.38961 4.83548C9.81006 4.59264 9.95403 4.05522 9.71119 3.63477L8.92017 2.26468C8.67756 1.84423 8.13991 1.70049 7.71969 1.9431C7.29923 2.18572 7.15526 2.72336 7.39788 3.14359L8.18889 4.51367Z" fill="#161616"/>
<path d="M20.5517 4.83553C20.69 4.91541 20.8413 4.95341 20.9903 4.95341C21.294 4.95341 21.5895 4.79571 21.7522 4.51373L22.5432 3.14364C22.7861 2.72341 22.6419 2.18577 22.2216 1.94315C21.8012 1.70031 21.2638 1.84451 21.0209 2.26473L20.2299 3.63482C19.9873 4.05528 20.1313 4.59292 20.5517 4.83553Z" fill="#161616"/>
<path d="M25.3993 9.36072C25.5486 9.36072 25.6996 9.32272 25.8381 9.24284L27.2082 8.4516C27.6284 8.20898 27.7726 7.67157 27.5298 7.25111C27.2869 6.83066 26.7493 6.68669 26.3293 6.92953L24.9592 7.72055C24.5387 7.96316 24.3948 8.50081 24.6374 8.92103C24.8001 9.20302 25.0956 9.36072 25.3993 9.36072Z" fill="#161616"/>
<path d="M27.2082 20.5527L25.8381 19.7617C25.4176 19.5186 24.88 19.6628 24.6374 20.0832C24.3948 20.5037 24.5387 21.0411 24.9592 21.2837L26.3293 22.0747C26.4675 22.1549 26.6186 22.1928 26.7678 22.1928C27.0715 22.1928 27.367 22.0351 27.5298 21.7532C27.7726 21.3327 27.6284 20.7953 27.2082 20.5527Z" fill="#161616"/>
<path d="M4.10345 19.7616L2.73336 20.5526C2.3129 20.7952 2.16894 21.3326 2.41155 21.7531C2.57451 22.035 2.86977 22.1927 3.1735 22.1927C3.32273 22.1927 3.47379 22.1548 3.61226 22.0746L4.98235 21.2836C5.40281 21.041 5.54677 20.5036 5.30393 20.0831C5.06132 19.6627 4.52367 19.5187 4.10345 19.7616Z" fill="#161616"/>
</g>
<defs>
<clipPath id="clip0_96_300">
<rect width="30" height="30" fill="white"/>
</clipPath>
</defs>
</svg>
