<svg width="30" height="30" viewBox="0 0 30 30" fill="none" xmlns="http://www.w3.org/2000/svg">
<path d="M29.1211 20.2734H28.2422V7.08984C28.2422 5.63596 27.0594 4.45312 25.6055 4.45312H4.39453C2.94064 4.45312 1.75781 5.63596 1.75781 7.08984V20.2734H0.878906C0.393516 20.2734 0 20.667 0 21.1523C0 23.5755 1.97139 25.5469 4.39453 25.5469H25.6055C28.0286 25.5469 30 23.5755 30 21.1523C30 20.667 29.6065 20.2734 29.1211 20.2734ZM3.51562 7.08984C3.51562 6.60521 3.9099 6.21094 4.39453 6.21094H25.6055C26.0901 6.21094 26.4844 6.60521 26.4844 7.08984V20.2734H3.51562V7.08984ZM25.6055 23.7891H15H4.39453C3.24867 23.7891 2.27115 23.0544 1.9084 22.0312H14.1211V22.9102C14.1211 23.3955 14.5146 23.7891 15 23.7891C15.4854 23.7891 15.8789 23.3955 15.8789 22.9102V22.0254H28.0916C27.7288 23.0485 26.7513 23.7891 25.6055 23.7891Z" fill="#161616"/>
</svg>
