<svg width="30" height="31" viewBox="0 0 30 31" fill="none" xmlns="http://www.w3.org/2000/svg">
<path fill-rule="evenodd" clip-rule="evenodd" d="M4.6875 2.53076C3.1342 2.53076 1.875 3.78996 1.875 5.34326V18.4683C1.875 20.0216 3.1342 21.2808 4.6875 21.2808H8.4375C8.95526 21.2808 9.375 20.861 9.375 20.3433V10.9683C9.375 10.4505 9.79472 10.0308 10.3125 10.0308H19.6875C20.2053 10.0308 20.625 9.61102 20.625 9.09326V5.34326C20.625 3.78996 19.3658 2.53076 17.8125 2.53076H4.6875ZM3.75 5.34326C3.75 4.8255 4.16974 4.40576 4.6875 4.40576H17.8125C18.3303 4.40576 18.75 4.8255 18.75 5.34326V8.15576H10.3125C8.7592 8.15576 7.5 9.41496 7.5 10.9683V19.4058H4.6875C4.16974 19.4058 3.75 18.986 3.75 18.4683V5.34326Z" fill="#161616"/>
<path fill-rule="evenodd" clip-rule="evenodd" d="M25.3125 28.7808C26.8658 28.7808 28.125 27.5216 28.125 25.9683V12.8433C28.125 11.2899 26.8658 10.0308 25.3125 10.0308H21.5625C21.0447 10.0308 20.625 10.4505 20.625 10.9683V20.3433C20.625 20.861 20.2053 21.2808 19.6875 21.2808H10.3125C9.79472 21.2808 9.375 21.7005 9.375 22.2183V25.9683C9.375 27.5216 10.6342 28.7808 12.1875 28.7808H25.3125ZM26.25 25.9683C26.25 26.486 25.8303 26.9058 25.3125 26.9058H12.1875C11.6697 26.9058 11.25 26.486 11.25 25.9683V23.1558H19.6875C21.2408 23.1558 22.5 21.8966 22.5 20.3433V11.9058H25.3125C25.8303 11.9058 26.25 12.3255 26.25 12.8433V25.9683Z" fill="#161616"/>
</svg>
