<svg width="16" height="16" viewBox="0 0 16 16" fill="none" xmlns="http://www.w3.org/2000/svg">
<g clip-path="url(#clip0_838_3557)">
<path d="M3.25 2.25H4.75C4.94891 2.25 5.13968 2.17098 5.28033 2.03033C5.42098 1.88968 5.5 1.69891 5.5 1.5C5.5 1.30109 5.42098 1.11032 5.28033 0.96967C5.13968 0.829018 4.94891 0.75 4.75 0.75H1.5C1.30109 0.75 1.11032 0.829018 0.96967 0.96967C0.829018 1.11032 0.75 1.30109 0.75 1.5V4.75C0.75 4.94891 0.829018 5.13968 0.96967 5.28033C1.11032 5.42098 1.30109 5.5 1.5 5.5C1.69891 5.5 1.88968 5.42098 2.03033 5.28033C2.17098 5.13968 2.25 4.94891 2.25 4.75V3.25L5.875 6.875C5.94066 6.94066 6.01861 6.99275 6.1044 7.02829C6.19019 7.06382 6.28214 7.08211 6.375 7.08211C6.46786 7.08211 6.55981 7.06382 6.6456 7.02829C6.73139 6.99275 6.80934 6.94066 6.875 6.875C6.94066 6.80934 6.99275 6.73139 7.02829 6.6456C7.06382 6.55981 7.08211 6.46786 7.08211 6.375C7.08211 6.28214 7.06382 6.19019 7.02829 6.1044C6.99275 6.01861 6.94066 5.94066 6.875 5.875L3.25 2.25Z" fill="#8E98A4"/>
<path d="M6.875 9.12499C6.80934 9.05933 6.73139 9.00724 6.6456 8.9717C6.55981 8.93617 6.46786 8.91788 6.375 8.91788C6.28214 8.91788 6.19019 8.93617 6.1044 8.9717C6.01861 9.00724 5.94066 9.05933 5.875 9.12499L2.25 12.75V11.25C2.25 11.0511 2.17098 10.8603 2.03033 10.7197C1.88968 10.579 1.69891 10.5 1.5 10.5C1.30109 10.5 1.11032 10.579 0.96967 10.7197C0.829018 10.8603 0.75 11.0511 0.75 11.25V14.5C0.75 14.6989 0.829018 14.8897 0.96967 15.0303C1.11032 15.171 1.30109 15.25 1.5 15.25H4.75C4.94891 15.25 5.13968 15.171 5.28033 15.0303C5.42098 14.8897 5.5 14.6989 5.5 14.5C5.5 14.3011 5.42098 14.1103 5.28033 13.9697C5.13968 13.829 4.94891 13.75 4.75 13.75H3.25L6.875 10.125C6.94066 10.0593 6.99275 9.98138 7.02829 9.89559C7.06382 9.8098 7.08211 9.71785 7.08211 9.62499C7.08211 9.53213 7.06382 9.44018 7.02829 9.35439C6.99275 9.2686 6.94066 9.19065 6.875 9.12499Z" fill="#8E98A4"/>
<path d="M14.5001 0.75H11.2501C11.0512 0.75 10.8604 0.829018 10.7198 0.96967C10.5791 1.11032 10.5001 1.30109 10.5001 1.5C10.5001 1.69891 10.5791 1.88968 10.7198 2.03033C10.8604 2.17098 11.0512 2.25 11.2501 2.25H12.7501L9.12508 5.875C9.05942 5.94066 9.00733 6.01861 8.9718 6.1044C8.93626 6.19019 8.91797 6.28214 8.91797 6.375C8.91797 6.46786 8.93626 6.55981 8.9718 6.6456C9.00733 6.73139 9.05942 6.80934 9.12508 6.875C9.19074 6.94066 9.26869 6.99275 9.35448 7.02829C9.44027 7.06382 9.53222 7.08211 9.62508 7.08211C9.71794 7.08211 9.80989 7.06382 9.89568 7.02829C9.98147 6.99275 10.0594 6.94066 10.1251 6.875L13.7501 3.25V4.75C13.7501 4.94891 13.8291 5.13968 13.9698 5.28033C14.1104 5.42098 14.3012 5.5 14.5001 5.5C14.699 5.5 14.8898 5.42098 15.0304 5.28033C15.1711 5.13968 15.2501 4.94891 15.2501 4.75V1.5C15.2501 1.30109 15.1711 1.11032 15.0304 0.96967C14.8898 0.829018 14.699 0.75 14.5001 0.75Z" fill="#8E98A4"/>
<path d="M14.5001 10.5C14.3012 10.5 14.1104 10.579 13.9698 10.7197C13.8291 10.8603 13.7501 11.0511 13.7501 11.25V12.75L10.1251 9.12499C10.0594 9.05933 9.98147 9.00724 9.89568 8.9717C9.80989 8.93617 9.71794 8.91788 9.62508 8.91788C9.53222 8.91788 9.44027 8.93617 9.35448 8.9717C9.26869 9.00724 9.19074 9.05933 9.12508 9.12499C9.05942 9.19065 9.00733 9.2686 8.9718 9.35439C8.93626 9.44018 8.91797 9.53213 8.91797 9.62499C8.91797 9.71785 8.93626 9.8098 8.9718 9.89559C9.00733 9.98138 9.05942 10.0593 9.12508 10.125L12.7501 13.75H11.2501C11.0512 13.75 10.8604 13.829 10.7198 13.9697C10.5791 14.1103 10.5001 14.3011 10.5001 14.5C10.5001 14.6989 10.5791 14.8897 10.7198 15.0303C10.8604 15.171 11.0512 15.25 11.2501 15.25H14.5001C14.699 15.25 14.8898 15.171 15.0304 15.0303C15.1711 14.8897 15.2501 14.6989 15.2501 14.5V11.25C15.2501 11.0511 15.1711 10.8603 15.0304 10.7197C14.8898 10.579 14.699 10.5 14.5001 10.5Z" fill="#8E98A4"/>
</g>
<defs>
<clipPath id="clip0_838_3557">
<rect width="16" height="16" fill="white"/>
</clipPath>
</defs>
</svg>
