<svg width="16" height="16" viewBox="0 0 16 16" fill="none" xmlns="http://www.w3.org/2000/svg">
<path d="M7.66659 14.5C3.89992 14.5 0.833252 11.4333 0.833252 7.66665C0.833252 3.89998 3.89992 0.833313 7.66659 0.833313C11.4333 0.833313 14.4999 3.89998 14.4999 7.66665C14.4999 11.4333 11.4333 14.5 7.66659 14.5ZM7.66659 1.83331C4.44659 1.83331 1.83325 4.45331 1.83325 7.66665C1.83325 10.88 4.44659 13.5 7.66659 13.5C10.8866 13.5 13.4999 10.88 13.4999 7.66665C13.4999 4.45331 10.8866 1.83331 7.66659 1.83331Z" fill="#8E98A4"/>
<path d="M14.6666 15.1667C14.54 15.1667 14.4133 15.12 14.3133 15.02L12.98 13.6867C12.7866 13.4934 12.7866 13.1734 12.98 12.98C13.1733 12.7867 13.4933 12.7867 13.6866 12.98L15.02 14.3134C15.2133 14.5067 15.2133 14.8267 15.02 15.02C14.92 15.12 14.7933 15.1667 14.6666 15.1667Z" fill="#8E98A4"/>
</svg>
