<svg width="30" height="30" viewBox="0 0 30 30" fill="none" xmlns="http://www.w3.org/2000/svg">
<path fill-rule="evenodd" clip-rule="evenodd" d="M9.08836 8.12963C9.43097 8.51783 9.39404 9.11027 9.00585 9.4529C7.12285 11.1148 5.9375 13.5434 5.9375 16.25C5.9375 16.7678 5.51776 17.1875 5 17.1875C4.48224 17.1875 4.0625 16.7678 4.0625 16.25C4.0625 12.9831 5.49595 10.0499 7.7651 8.04712C8.1533 7.70451 8.74574 7.74145 9.08836 8.12963ZM20.9116 8.12963C21.2542 7.74145 21.8468 7.70451 22.2349 8.04712C24.504 10.0499 25.9375 12.9831 25.9375 16.25C25.9375 16.7678 25.5177 17.1875 25 17.1875C24.4823 17.1875 24.0625 16.7678 24.0625 16.25C24.0625 13.5434 22.8771 11.1148 20.9941 9.4529C20.606 9.11027 20.569 8.51783 20.9116 8.12963ZM11.5921 25.7013C11.7212 25.1999 12.2323 24.898 12.7336 25.0271C13.457 25.2133 14.2163 25.3125 15 25.3125C15.7837 25.3125 16.543 25.2133 17.2664 25.0271C17.7677 24.898 18.2789 25.1999 18.4079 25.7013C18.537 26.2028 18.2351 26.7139 17.7336 26.8429C16.8589 27.068 15.9427 27.1875 15 27.1875C14.0573 27.1875 13.1411 27.068 12.2663 26.8429C11.7649 26.7139 11.463 26.2028 11.5921 25.7013Z" fill="#222222"/>
<path fill-rule="evenodd" clip-rule="evenodd" d="M17.8125 7.5C17.8125 5.9467 16.5532 4.6875 15 4.6875C13.4468 4.6875 12.1875 5.9467 12.1875 7.5C12.1875 9.0533 13.4468 10.3125 15 10.3125C16.5532 10.3125 17.8125 9.0533 17.8125 7.5ZM15 2.8125C17.5889 2.8125 19.6875 4.91116 19.6875 7.5C19.6875 10.0888 17.5889 12.1875 15 12.1875C12.4112 12.1875 10.3125 10.0888 10.3125 7.5C10.3125 4.91116 12.4112 2.8125 15 2.8125Z" fill="#222222"/>
<path fill-rule="evenodd" clip-rule="evenodd" d="M9.6875 22.5C9.6875 20.9468 8.4283 19.6875 6.875 19.6875C5.3217 19.6875 4.0625 20.9468 4.0625 22.5C4.0625 24.0532 5.3217 25.3125 6.875 25.3125C8.4283 25.3125 9.6875 24.0532 9.6875 22.5ZM6.875 17.8125C9.46384 17.8125 11.5625 19.9111 11.5625 22.5C11.5625 25.0889 9.46384 27.1875 6.875 27.1875C4.28616 27.1875 2.1875 25.0889 2.1875 22.5C2.1875 19.9111 4.28616 17.8125 6.875 17.8125Z" fill="#222222"/>
<path fill-rule="evenodd" clip-rule="evenodd" d="M25.9375 22.5C25.9375 20.9468 24.6782 19.6875 23.125 19.6875C21.5718 19.6875 20.3125 20.9468 20.3125 22.5C20.3125 24.0532 21.5718 25.3125 23.125 25.3125C24.6782 25.3125 25.9375 24.0532 25.9375 22.5ZM23.125 17.8125C25.7139 17.8125 27.8125 19.9111 27.8125 22.5C27.8125 25.0889 25.7139 27.1875 23.125 27.1875C20.5361 27.1875 18.4375 25.0889 18.4375 22.5C18.4375 19.9111 20.5361 17.8125 23.125 17.8125Z" fill="#222222"/>
</svg>
