<svg width="30" height="30" viewBox="0 0 30 30" fill="none" xmlns="http://www.w3.org/2000/svg">
<g clip-path="url(#clip0_92_186)">
<path d="M27.0202 3.56736L15.2527 0.0370898C15.0881 -0.0123633 14.9124 -0.0123633 14.7476 0.0370898L2.98001 3.56736C2.60823 3.67887 2.35364 4.02105 2.35364 4.40918V17.3535C2.35364 19.0371 3.0352 20.7606 4.3794 22.476C5.40608 23.7862 6.82639 25.1018 8.60096 26.3863C11.582 28.5442 14.5175 29.868 14.641 29.9232C14.7552 29.9744 14.8776 30 15.0001 30C15.1225 30 15.245 29.9745 15.3592 29.9232C15.4827 29.868 18.4181 28.5442 21.3992 26.3863C23.1737 25.1018 24.594 23.7862 25.6207 22.476C26.9649 20.7606 27.6465 19.0372 27.6465 17.3535V4.40918C27.6465 4.02105 27.392 3.67887 27.0202 3.56736ZM25.8887 17.3535C25.8887 20.3331 22.8991 23.127 20.3911 24.9461C18.1426 26.577 15.8623 27.7342 15.0002 28.1499C14.138 27.7342 11.8577 26.577 9.60918 24.9461C7.10114 23.127 4.11145 20.3331 4.11145 17.3535V5.06309L15.0001 1.79648L25.8887 5.06309V17.3535Z" fill="#161616"/>
</g>
<defs>
<clipPath id="clip0_92_186">
<rect width="30" height="30" fill="white"/>
</clipPath>
</defs>
</svg>
