<svg width="17" height="16" viewBox="0 0 17 16" fill="none" xmlns="http://www.w3.org/2000/svg">
<g clip-path="url(#clip0_1065_4133)">
<path fill-rule="evenodd" clip-rule="evenodd" d="M7.72656 11.4362V8.77437H5.06375C4.04687 8.77437 4.04687 7.22687 5.06375 7.22687H7.72656V4.56406C7.72656 3.54719 9.27406 3.54719 9.27406 4.56406V7.22687H11.9359C12.9528 7.22687 12.9528 8.77437 11.9359 8.77437H9.27406V11.4362C9.27406 12.4531 7.72656 12.4531 7.72656 11.4362ZM8.5 16C12.9184 16 16.5 12.4187 16.5 8C16.5 3.58156 12.9184 0 8.5 0C4.08156 0 0.5 3.58156 0.5 8C0.5 12.4184 4.08156 16 8.5 16Z" fill="white"/>
</g>
<defs>
<clipPath id="clip0_1065_4133">
<rect width="16" height="16" fill="white" transform="translate(0.5)"/>
</clipPath>
</defs>
</svg>
