<svg width="20" height="20" viewBox="0 0 20 20" fill="none" xmlns="http://www.w3.org/2000/svg">
<path d="M10.2085 6.45846H10.0002C9.90204 6.45447 9.8062 6.42771 9.7202 6.38031C9.6342 6.33291 9.5604 6.26616 9.50463 6.18533C9.44886 6.10451 9.41265 6.01182 9.39886 5.9146C9.38506 5.81737 9.39407 5.71827 9.42516 5.62512C9.71683 4.89179 9.98349 4.14179 10.2002 3.40846C10.3835 2.84179 11.1002 1.06679 12.9002 1.06679C13.6017 1.04431 14.2835 1.30106 14.7959 1.78069C15.3083 2.26032 15.6096 2.92365 15.6335 3.62512C15.6335 5.23346 13.8085 5.89179 13.1335 6.12512C12.1792 6.37415 11.1944 6.48638 10.2085 6.45846ZM12.8918 2.29179C11.9335 2.29179 11.5002 3.40012 11.3918 3.74179C11.2418 4.22512 11.0835 4.70846 10.9085 5.19179C11.5059 5.188 12.1001 5.10391 12.6752 4.94179C13.1502 4.77512 14.3418 4.32512 14.3418 3.60012C14.3162 3.2369 14.1508 2.89773 13.8805 2.65379C13.6101 2.40985 13.2558 2.28011 12.8918 2.29179Z" fill="#8E98A4"/>
<path d="M9.76678 6.45838C8.80235 6.47537 7.84028 6.35756 6.90845 6.10838C4.83345 5.43338 4.40845 4.37505 4.40845 3.60838C4.41193 3.28456 4.48091 2.9648 4.61124 2.66835C4.74156 2.37189 4.93054 2.10488 5.16678 1.88338C5.69211 1.3549 6.40497 1.05538 7.15011 1.05005C8.55011 1.05005 9.25845 2.35838 9.78345 3.29172C10.1246 4.05683 10.4033 4.8483 10.6168 5.65838C10.6426 5.75031 10.647 5.84693 10.6297 5.94083C10.6123 6.03472 10.5737 6.1234 10.5168 6.20005C10.4616 6.27745 10.3892 6.34104 10.3054 6.38586C10.2215 6.43067 10.1285 6.45549 10.0334 6.45838H9.76678ZM7.05845 2.29172C6.66271 2.30876 6.28914 2.47911 6.01678 2.76672C5.89799 2.87146 5.80195 2.99946 5.73459 3.14279C5.66722 3.28612 5.62996 3.44175 5.62511 3.60005C5.62511 4.10838 6.24178 4.60005 7.29178 4.94172C7.90447 5.10008 8.53401 5.18402 9.16678 5.19172C9.03199 4.74793 8.86774 4.31363 8.67511 3.89172L9.16678 3.59172L8.62511 3.89172C8.14178 2.96672 7.72511 2.30838 7.08345 2.29172H7.05845Z" fill="#8E98A4"/>
<path d="M17.7084 8.54183V7.50016C17.7084 6.89238 17.467 6.30948 17.0372 5.87971C16.6074 5.44994 16.0245 5.2085 15.4167 5.2085H4.58341C3.97563 5.2085 3.39273 5.44994 2.96296 5.87971C2.53319 6.30948 2.29175 6.89238 2.29175 7.50016V8.54183H17.7084Z" fill="#8E98A4"/>
<path d="M10.625 9.79175V18.9584H15.4167C16.0245 18.9584 16.6073 18.717 17.0371 18.2872C17.4669 17.8574 17.7083 17.2745 17.7083 16.6667V9.79175H10.625Z" fill="#8E98A4"/>
<path d="M9.37508 9.79175H2.29175V16.6667C2.29175 17.2745 2.53319 17.8574 2.96296 18.2872C3.39273 18.717 3.97563 18.9584 4.58341 18.9584H9.37508V9.79175Z" fill="#8E98A4"/>
</svg>
