<svg width="20" height="20" viewBox="0 0 20 20" fill="none" xmlns="http://www.w3.org/2000/svg">
<g clip-path="url(#clip0_736_4396)">
<path d="M16.6667 7.37664L14.2191 7.98617L11.1619 4.17664C11.0234 4.01717 10.8522 3.8893 10.66 3.80168C10.4677 3.71405 10.2589 3.6687 10.0477 3.6687C9.83639 3.6687 9.62759 3.71405 9.43536 3.80168C9.24312 3.8893 9.07194 4.01717 8.93337 4.17664L5.87623 7.98617L3.38099 7.37664C3.14185 7.31941 2.89204 7.32445 2.65541 7.39127C2.41878 7.4581 2.20323 7.58448 2.02936 7.75835C1.85549 7.93222 1.72911 8.14777 1.66228 8.3844C1.59546 8.62103 1.59042 8.87084 1.64765 9.10998L3.27623 15.5957C3.35108 15.9054 3.528 16.181 3.77851 16.3779C4.02902 16.5749 4.33852 16.6818 4.65718 16.6814H15.3429C15.6615 16.6818 15.9711 16.5749 16.2216 16.3779C16.4721 16.181 16.649 15.9054 16.7238 15.5957L18.3524 9.10998C18.4066 8.87558 18.401 8.63135 18.3364 8.39964C18.2717 8.16793 18.1499 7.95615 17.9822 7.78369C17.8144 7.61123 17.6061 7.4836 17.3763 7.41248C17.1465 7.34137 16.9025 7.32905 16.6667 7.37664Z" fill="#8E98A4"/>
<path d="M1.19048 6.68149C1.84796 6.68149 2.38095 6.1485 2.38095 5.49101C2.38095 4.83353 1.84796 4.30054 1.19048 4.30054C0.532994 4.30054 0 4.83353 0 5.49101C0 6.1485 0.532994 6.68149 1.19048 6.68149Z" fill="#8E98A4"/>
<path d="M18.8096 6.68149C19.4671 6.68149 20.0001 6.1485 20.0001 5.49101C20.0001 4.83353 19.4671 4.30054 18.8096 4.30054C18.1521 4.30054 17.6191 4.83353 17.6191 5.49101C17.6191 6.1485 18.1521 6.68149 18.8096 6.68149Z" fill="#8E98A4"/>
<path d="M10 2.63388C10.6575 2.63388 11.1905 2.10089 11.1905 1.44341C11.1905 0.785924 10.6575 0.25293 10 0.25293C9.34256 0.25293 8.80957 0.785924 8.80957 1.44341C8.80957 2.10089 9.34256 2.63388 10 2.63388Z" fill="#8E98A4"/>
<path d="M15.7142 19.5386H4.28563C4.03305 19.5386 3.7908 19.4382 3.6122 19.2596C3.43359 19.081 3.33325 18.8388 3.33325 18.5862C3.33325 18.3336 3.43359 18.0913 3.6122 17.9127C3.7908 17.7341 4.03305 17.6338 4.28563 17.6338H15.7142C15.9668 17.6338 16.209 17.7341 16.3876 17.9127C16.5662 18.0913 16.6666 18.3336 16.6666 18.5862C16.6666 18.8388 16.5662 19.081 16.3876 19.2596C16.209 19.4382 15.9668 19.5386 15.7142 19.5386Z" fill="#8E98A4"/>
</g>
<defs>
<clipPath id="clip0_736_4396">
<rect width="20" height="20" fill="white"/>
</clipPath>
</defs>
</svg>
