<svg width="20" height="20" viewBox="0 0 20 20" fill="none" xmlns="http://www.w3.org/2000/svg">
<path fill-rule="evenodd" clip-rule="evenodd" d="M18.9584 5.00008C18.9584 3.95008 18.5417 2.94341 17.7992 2.20091C17.0567 1.45841 16.0501 1.04175 15.0001 1.04175H5.00008C3.95008 1.04175 2.94341 1.45841 2.20091 2.20091C1.45841 2.94341 1.04175 3.95008 1.04175 5.00008V15.0001C1.04175 16.0501 1.45841 17.0567 2.20091 17.7992C2.94341 18.5417 3.95008 18.9584 5.00008 18.9584H15.0001C16.0501 18.9584 17.0567 18.5417 17.7992 17.7992C18.5417 17.0567 18.9584 16.0501 18.9584 15.0001V5.00008ZM10.4067 6.80258L8.40675 12.8026C8.29842 13.1301 8.47508 13.4842 8.80258 13.5934C9.13008 13.7017 9.48425 13.5251 9.59342 13.1976L11.5934 7.19758C11.7017 6.87008 11.5251 6.51591 11.1976 6.40675C10.8701 6.29842 10.5159 6.47508 10.4067 6.80258ZM12.5584 8.44175L14.1159 10.0001L12.5584 11.5584C12.3142 11.8017 12.3142 12.1984 12.5584 12.4417C12.8017 12.6859 13.1984 12.6859 13.4417 12.4417L15.4417 10.4417C15.6859 10.1976 15.6859 9.80258 15.4417 9.55842L13.4417 7.55841C13.1984 7.31425 12.8017 7.31425 12.5584 7.55841C12.3142 7.80175 12.3142 8.19842 12.5584 8.44175ZM6.55841 7.55841L4.55841 9.55842C4.31425 9.80258 4.31425 10.1976 4.55841 10.4417L6.55841 12.4417C6.80175 12.6859 7.19842 12.6859 7.44175 12.4417C7.68592 12.1984 7.68592 11.8017 7.44175 11.5584L5.88425 10.0001L7.44175 8.44175C7.68592 8.19842 7.68592 7.80175 7.44175 7.55841C7.19842 7.31425 6.80175 7.31425 6.55841 7.55841Z" fill="#8E98A4"/>
</svg>
