<svg width="14" height="14" viewBox="0 0 14 14" fill="none" xmlns="http://www.w3.org/2000/svg">
<path d="M12.69 1.30969C11.7138 0.333374 10.1424 0.333374 6.9997 0.333374C3.857 0.333374 2.28565 0.333374 1.30934 1.30969C0.804351 1.81467 0.560564 2.47887 0.442871 3.43736C0.796651 3.04359 1.22174 2.71556 1.69907 2.47235C2.22006 2.20689 2.77792 2.09924 3.3956 2.04877C3.99236 2.00002 4.72664 2.00003 5.62447 2.00004H8.3749C9.27277 2.00003 10.007 2.00002 10.6038 2.04877C11.2215 2.09924 11.7794 2.20689 12.3003 2.47235C12.7776 2.71556 13.2028 3.04359 13.5565 3.43736C13.4388 2.47887 13.195 1.81467 12.69 1.30969Z" fill="#2C2C2C"/>
<path fill-rule="evenodd" clip-rule="evenodd" d="M0.333496 8.33333C0.333496 6.46647 0.333496 5.53307 0.696809 4.82003C1.01638 4.19283 1.52632 3.68289 2.15353 3.36331C2.86657 3 3.79999 3 5.66683 3H8.3335C10.2004 3 11.1338 3 11.8468 3.36331C12.474 3.68289 12.984 4.19283 13.3035 4.82003C13.6668 5.53307 13.6668 6.46647 13.6668 8.33333C13.6668 10.2002 13.6668 11.1336 13.3035 11.8467C12.984 12.4739 12.474 12.9838 11.8468 13.3033C11.1338 13.6667 10.2004 13.6667 8.3335 13.6667H5.66683C3.79999 13.6667 2.86657 13.6667 2.15353 13.3033C1.52632 12.9838 1.01638 12.4739 0.696809 11.8467C0.333496 11.1336 0.333496 10.2002 0.333496 8.33333ZM7.3537 5.9798C7.25996 5.886 7.13276 5.83333 7.00016 5.83333C6.86756 5.83333 6.74036 5.886 6.64663 5.9798L4.97994 7.64647C4.78468 7.84173 4.78468 8.15827 4.97994 8.35353C5.1752 8.5488 5.49179 8.5488 5.68703 8.35353L6.50016 7.54047V10.3333C6.50016 10.6095 6.72403 10.8333 7.00016 10.8333C7.2763 10.8333 7.50016 10.6095 7.50016 10.3333V7.54047L8.3133 8.35353C8.50856 8.5488 8.8251 8.5488 9.02036 8.35353C9.21563 8.15827 9.21563 7.84173 9.02036 7.64647L7.3537 5.9798Z" fill="#2C2C2C"/>
</svg>
