<svg width="14" height="14" viewBox="0 0 14 14" fill="none" xmlns="http://www.w3.org/2000/svg">
<path d="M12.6898 1.30965C11.7136 0.333336 10.1422 0.333336 6.99951 0.333336C3.85681 0.333336 2.28547 0.333336 1.30916 1.30965C0.804168 1.81464 0.560381 2.47883 0.442688 3.43732C0.796468 3.04355 1.22155 2.71552 1.69889 2.47231C2.21987 2.20685 2.77774 2.0992 3.39542 2.04874C3.99217 1.99998 4.72645 1.99999 5.62429 2H8.37472C9.27258 1.99999 10.0068 1.99998 10.6036 2.04874C11.2213 2.0992 11.7792 2.20685 12.3001 2.47231C12.7774 2.71552 13.2026 3.04355 13.5563 3.43732C13.4386 2.47883 13.1948 1.81464 12.6898 1.30965Z" fill="#8E98A4"/>
<path fill-rule="evenodd" clip-rule="evenodd" d="M0.333313 8.33333C0.333313 6.46647 0.333313 5.53307 0.696626 4.82003C1.0162 4.19283 1.52614 3.68289 2.15335 3.36331C2.86639 3 3.79981 3 5.66665 3H8.33331C10.2002 3 11.1336 3 11.8466 3.36331C12.4738 3.68289 12.9838 4.19283 13.3033 4.82003C13.6666 5.53307 13.6666 6.46647 13.6666 8.33333C13.6666 10.2002 13.6666 11.1336 13.3033 11.8467C12.9838 12.4739 12.4738 12.9838 11.8466 13.3033C11.1336 13.6667 10.2002 13.6667 8.33331 13.6667H5.66665C3.79981 13.6667 2.86639 13.6667 2.15335 13.3033C1.52614 12.9838 1.0162 12.4739 0.696626 11.8467C0.333313 11.1336 0.333313 10.2002 0.333313 8.33333ZM7.35351 5.9798C7.25978 5.886 7.13258 5.83333 6.99998 5.83333C6.86738 5.83333 6.74018 5.886 6.64645 5.9798L4.97976 7.64647C4.7845 7.84173 4.7845 8.15827 4.97976 8.35353C5.17502 8.5488 5.49161 8.5488 5.68685 8.35353L6.49998 7.54047V10.3333C6.49998 10.6095 6.72385 10.8333 6.99998 10.8333C7.27611 10.8333 7.49998 10.6095 7.49998 10.3333V7.54047L8.31311 8.35353C8.50838 8.5488 8.82491 8.5488 9.02018 8.35353C9.21545 8.15827 9.21545 7.84173 9.02018 7.64647L7.35351 5.9798Z" fill="#8E98A4"/>
</svg>
