<svg width="24" height="22" viewBox="0 0 24 22" fill="none" xmlns="http://www.w3.org/2000/svg">
<path d="M3.34448 18.0374V21.7494C3.34448 21.8828 3.45258 21.9909 3.58594 21.9909H20.4141C20.5474 21.9909 20.6555 21.8828 20.6555 21.7494V18.0374H3.34448Z" fill="#FE9901"/>
<path d="M5.57747 21.7494V18.0842H3.34448V21.7494C3.34448 21.8828 3.45258 21.9909 3.58594 21.9909H5.81892C5.68556 21.9909 5.57747 21.8828 5.57747 21.7494Z" fill="#FB8801"/>
<path d="M5.50571 6.74774C5.56885 6.77361 5.60321 6.84224 5.58971 6.90913L4.81092 10.7609L8.25694 13.3115L9.66994 9.81003L6.82186 6.58302C6.77625 6.53132 6.77142 6.45374 6.81375 6.39927C7.04105 6.10691 7.12097 5.70603 6.98067 5.32283C6.79964 4.82844 6.28561 4.52357 5.76516 4.60316C5.09321 4.70596 4.67724 5.363 4.84819 6.00107C4.94231 6.35235 5.19338 6.61958 5.50571 6.74774Z" fill="#FEE45A"/>
<path d="M5.50572 6.74781C5.56886 6.77369 5.60322 6.84231 5.58972 6.9092L4.8212 10.7102L5.482 11.1993L6.41069 6.60629C6.42419 6.5394 6.38983 6.47078 6.32669 6.4449C6.01436 6.31679 5.7633 6.04951 5.66917 5.69828C5.55873 5.28611 5.69345 4.86625 5.98366 4.59273C5.91156 4.58922 5.83853 4.59203 5.76522 4.60323C5.09327 4.70603 4.6773 5.36308 4.84825 6.00114C4.94233 6.35242 5.19339 6.61965 5.50572 6.74781Z" fill="#FEDF30"/>
<path d="M17.179 6.58194L14.3301 9.80994L15.7431 13.3114L19.1891 10.7608L18.4106 6.91053C18.397 6.84303 18.4314 6.77352 18.4951 6.74731C18.8255 6.61152 19.0871 6.31995 19.1668 5.93802C19.2814 5.38845 18.9605 4.82848 18.4283 4.64989C17.81 4.44242 17.1544 4.80088 16.9882 5.42122C16.8937 5.77386 16.9785 6.13227 17.1867 6.39973C17.2287 6.45378 17.2243 6.53066 17.179 6.58194Z" fill="#FEDF30"/>
<path d="M17.179 6.58201L14.3648 9.77073L14.7008 10.6033L18.105 6.74617C18.1503 6.69489 18.1547 6.61797 18.1127 6.56401C17.9044 6.29654 17.8196 5.93814 17.9141 5.5855C18.0218 5.18378 18.3348 4.89212 18.7099 4.79261C18.6248 4.73293 18.5306 4.68428 18.4284 4.65001C17.8101 4.44254 17.1544 4.801 16.9882 5.42134C16.8937 5.77398 16.9786 6.13239 17.1867 6.39986C17.2287 6.45386 17.2243 6.53073 17.179 6.58201Z" fill="#FED402"/>
<path d="M22.7603 6.95702C22.242 7.01074 21.8228 7.42831 21.7667 7.94632C21.745 8.14667 21.7765 8.33768 21.8485 8.50728C21.8917 8.60904 21.8579 8.72717 21.769 8.79293L15.7249 13.2666L17.669 18.0841H20.6555L22.5699 9.37793C22.5953 9.26234 22.7007 9.1826 22.8189 9.18907C22.8886 9.19292 22.9601 9.19024 23.0328 9.18026C23.5508 9.1092 23.9581 8.67762 23.9968 8.15623C24.0486 7.45906 23.4614 6.88432 22.7603 6.95702Z" fill="#FED402"/>
<path d="M22.7603 6.95702C22.242 7.01074 21.8228 7.4283 21.7667 7.94631C21.745 8.1467 21.7765 8.33767 21.8485 8.50731C21.8917 8.60908 21.8579 8.7272 21.769 8.79297L15.7639 13.2378L16.0361 13.9123L22.4763 9.14538C22.5652 9.07961 22.5989 8.96149 22.5558 8.85972C22.4838 8.69008 22.4523 8.49911 22.474 8.29872C22.5301 7.7807 22.9493 7.36319 23.4676 7.30942C23.5473 7.30117 23.6254 7.30164 23.7013 7.30933C23.4719 7.06206 23.1321 6.91848 22.7603 6.95702Z" fill="#FAC600"/>
<path d="M6.33093 18.0844L8.27503 13.2669L2.23092 8.79321C2.14204 8.72745 2.10829 8.60932 2.15146 8.50756C2.22346 8.33791 2.25492 8.14695 2.23321 7.9466C2.17715 7.42854 1.75785 7.01098 1.23956 6.95726C0.538261 6.8846 -0.0489424 7.45966 0.00322945 8.15716C0.0421826 8.67846 0.44962 9.10971 0.967542 9.18059C1.04015 9.19052 1.11145 9.19315 1.18106 9.18935C1.29928 9.18288 1.40465 9.26257 1.43006 9.37821L3.34448 18.0844H6.33093Z" fill="#FED402"/>
<path d="M2.02659 8.8396C2.00118 8.72401 1.89576 8.64427 1.77759 8.65074C1.70798 8.65454 1.63668 8.65192 1.56407 8.64198C1.04615 8.5711 0.638711 8.13981 0.599758 7.61856C0.583727 7.40424 0.628258 7.2016 0.717742 7.02563C0.272945 7.19696 -0.0351639 7.64359 0.00322673 8.15692C0.0421798 8.67821 0.449664 9.10946 0.967539 9.18038C1.04015 9.19032 1.11145 9.19295 1.18105 9.18915C1.29927 9.18268 1.40465 9.26237 1.43005 9.37801L3.34448 18.0842H4.12973L2.02659 8.8396Z" fill="#FAC600"/>
<path d="M17.7196 18.0841L12.7498 5.76884C12.7136 5.67903 12.7345 5.57623 12.803 5.50775L13.8559 4.4548C13.9502 4.36048 13.9502 4.20762 13.8559 4.11336L12.1707 2.42816C12.0764 2.33384 11.9236 2.33384 11.8292 2.42816L10.144 4.11336C10.0497 4.20767 10.0497 4.36053 10.144 4.4548L11.197 5.50775C11.2655 5.57623 11.2864 5.67903 11.2501 5.76884L6.28036 18.0841H17.7196Z" fill="#FEE45A"/>
<path d="M12.3345 5.5078L11.2816 4.45484C11.1872 4.36053 11.1872 4.20767 11.2816 4.11336L12.5687 2.82617L12.1707 2.42816C12.0764 2.33384 11.9236 2.33384 11.8293 2.42816L10.1441 4.11336C10.0498 4.20767 10.0498 4.36053 10.1441 4.45484L11.197 5.5078C11.2655 5.57628 11.2865 5.67908 11.2502 5.76889L6.28036 18.0841H7.41788L12.3877 5.76884C12.4239 5.67903 12.403 5.57628 12.3345 5.5078Z" fill="#FEDF30"/>
<path d="M11.8637 11.4141L10.4614 13.3593C10.4195 13.4174 10.4191 13.4957 10.4603 13.5543L11.8626 15.5447C11.9296 15.6397 12.0704 15.6397 12.1373 15.5447L13.5396 13.5543C13.5809 13.4957 13.5804 13.4174 13.5385 13.3593L12.1362 11.4141C12.0692 11.3211 11.9308 11.3211 11.8637 11.4141Z" fill="#925CB4"/>
<path d="M11.6337 13.5542C11.5925 13.4956 11.5929 13.4173 11.6348 13.3592L12.5867 12.0388L12.1363 11.414C12.0692 11.321 11.9308 11.321 11.8637 11.414L10.4614 13.3592C10.4195 13.4173 10.4191 13.4956 10.4603 13.5542L11.8626 15.5446C11.9296 15.6395 12.0704 15.6395 12.1373 15.5446L12.5867 14.9067L11.6337 13.5542Z" fill="#814BA2"/>
<path d="M5.67188 20.3228C5.86604 20.3228 6.02344 20.1654 6.02344 19.9712C6.02344 19.777 5.86604 19.6196 5.67188 19.6196C5.47771 19.6196 5.32031 19.777 5.32031 19.9712C5.32031 20.1654 5.47771 20.3228 5.67188 20.3228Z" fill="#FED402"/>
<path d="M8.20312 20.3228C8.39729 20.3228 8.55469 20.1654 8.55469 19.9712C8.55469 19.777 8.39729 19.6196 8.20312 19.6196C8.00896 19.6196 7.85156 19.777 7.85156 19.9712C7.85156 20.1654 8.00896 20.3228 8.20312 20.3228Z" fill="#FED402"/>
<path d="M10.7344 20.3228C10.9285 20.3228 11.0859 20.1654 11.0859 19.9712C11.0859 19.777 10.9285 19.6196 10.7344 19.6196C10.5402 19.6196 10.3828 19.777 10.3828 19.9712C10.3828 20.1654 10.5402 20.3228 10.7344 20.3228Z" fill="#FED402"/>
<path d="M13.2656 20.3228C13.4598 20.3228 13.6172 20.1654 13.6172 19.9712C13.6172 19.777 13.4598 19.6196 13.2656 19.6196C13.0715 19.6196 12.9141 19.777 12.9141 19.9712C12.9141 20.1654 13.0715 20.3228 13.2656 20.3228Z" fill="#FED402"/>
<path d="M15.7969 20.3228C15.991 20.3228 16.1484 20.1654 16.1484 19.9712C16.1484 19.777 15.991 19.6196 15.7969 19.6196C15.6027 19.6196 15.4453 19.777 15.4453 19.9712C15.4453 20.1654 15.6027 20.3228 15.7969 20.3228Z" fill="#FED402"/>
<path d="M18.3281 20.3228C18.5223 20.3228 18.6797 20.1654 18.6797 19.9712C18.6797 19.777 18.5223 19.6196 18.3281 19.6196C18.134 19.6196 17.9766 19.777 17.9766 19.9712C17.9766 20.1654 18.134 20.3228 18.3281 20.3228Z" fill="#FED402"/>
<path d="M8.18241 0.111776C8.43024 0.823011 8.71936 1.11214 9.4306 1.35996C9.56743 1.40764 9.56743 1.60062 9.4306 1.64829C8.71936 1.89612 8.43024 2.18525 8.18241 2.89648C8.13474 3.03331 7.94175 3.03331 7.89408 2.89648C7.64625 2.18525 7.35713 1.89612 6.6459 1.64829C6.50907 1.60062 6.50907 1.40764 6.6459 1.35996C7.35713 1.11214 7.64625 0.823011 7.89408 0.111776C7.94175 -0.0250518 8.13474 -0.0250518 8.18241 0.111776Z" fill="#FE9901"/>
<path d="M7.29172 1.04065C7.12297 1.16665 6.91462 1.26626 6.64583 1.35992C6.50901 1.40759 6.50901 1.60057 6.64583 1.64824C7.35707 1.89607 7.64619 2.1852 7.89402 2.89643C7.94169 3.03326 8.13468 3.03326 8.18235 2.89643C8.27483 2.63102 8.37308 2.42454 8.49683 2.25692C8.25491 1.57207 7.96963 1.28337 7.29172 1.04065Z" fill="#FB8801"/>
<path d="M16.1542 1.41561C16.402 2.12684 16.6912 2.41597 17.4024 2.6638C17.5392 2.71147 17.5392 2.90445 17.4024 2.95213C16.6912 3.19995 16.402 3.48908 16.1542 4.20031C16.1065 4.33714 15.9136 4.33714 15.8659 4.20031C15.6181 3.48908 15.3289 3.19995 14.6177 2.95213C14.4809 2.90445 14.4809 2.71147 14.6177 2.6638C15.3289 2.41597 15.6181 2.12684 15.8659 1.41561C15.9136 1.27878 16.1065 1.27878 16.1542 1.41561Z" fill="#FE9901"/>
<path d="M15.287 2.32581C15.1141 2.46052 14.8994 2.56567 14.6177 2.66377C14.4809 2.71145 14.4809 2.90443 14.6177 2.9521C15.3289 3.19993 15.6181 3.48906 15.8659 4.20029C15.9136 4.33712 16.1065 4.33712 16.1542 4.20029C16.2504 3.92438 16.3531 3.71256 16.4838 3.54146C16.2428 2.85774 15.9591 2.56815 15.287 2.32581Z" fill="#FB8801"/>
</svg>
