<svg width="340" height="44" viewBox="0 0 340 44" fill="none" xmlns="http://www.w3.org/2000/svg">
<rect x="0.5" y="0.5" width="339" height="43" rx="5.5" fill="white"/>
<rect x="0.5" y="0.5" width="339" height="43" rx="5.5" stroke="#D2D9E8"/>
<path d="M29.5582 21.4109C29.4786 21.4877 29.4151 21.5797 29.3714 21.6813C29.3277 21.783 29.3047 21.8924 29.3038 22.003C29.3028 22.1137 29.3239 22.2234 29.3658 22.3258C29.4077 22.4282 29.4696 22.5213 29.5478 22.5995C29.6261 22.6778 29.7191 22.7396 29.8215 22.7815C29.9239 22.8234 30.0337 22.8445 30.1443 22.8436C30.255 22.8426 30.3643 22.8196 30.466 22.7759C30.5677 22.7323 30.6596 22.6688 30.7365 22.5892L32.0232 21.3025C32.8462 20.4604 33.304 19.3277 33.2973 18.1502C33.2905 16.9727 32.8198 15.8454 31.9871 15.0127C31.1545 14.1801 30.0271 13.7093 28.8496 13.7026C27.6721 13.6958 26.5394 14.1536 25.6973 14.9767L24.4107 16.2634C24.3311 16.3402 24.2676 16.4322 24.2239 16.5338C24.1802 16.6355 24.1572 16.7449 24.1563 16.8555C24.1553 16.9662 24.1764 17.0759 24.2183 17.1783C24.2602 17.2807 24.3221 17.3738 24.4003 17.452C24.4786 17.5303 24.5716 17.5921 24.674 17.634C24.7764 17.6759 24.8862 17.697 24.9968 17.6961C25.1075 17.6951 25.2168 17.6721 25.3185 17.6284C25.4202 17.5848 25.5121 17.5213 25.589 17.4417L26.8757 16.155C27.1358 15.8921 27.4453 15.6831 27.7864 15.5402C28.1275 15.3972 28.4936 15.3231 28.8634 15.3221C29.2333 15.3211 29.5997 15.3932 29.9416 15.5343C30.2835 15.6753 30.5942 15.8826 30.8557 16.1441C31.1172 16.4057 31.3245 16.7163 31.4656 17.0582C31.6067 17.4001 31.6788 17.7666 31.6778 18.1364C31.6767 18.5063 31.6026 18.8723 31.4597 19.2134C31.3167 19.5546 31.1078 19.8641 30.8448 20.1242L29.5582 21.4109Z" fill="#8E98A4"/>
<path d="M20.4418 22.5892C20.5214 22.5123 20.5849 22.4203 20.6286 22.3187C20.6722 22.217 20.6952 22.1077 20.6962 21.997C20.6971 21.8864 20.6761 21.7766 20.6342 21.6742C20.5923 21.5718 20.5304 21.4788 20.4521 21.4005C20.3739 21.3223 20.2809 21.2604 20.1784 21.2185C20.076 21.1766 19.9663 21.1555 19.8556 21.1565C19.745 21.1574 19.6356 21.1804 19.534 21.2241C19.4323 21.2678 19.3403 21.3312 19.2635 21.4108L17.9768 22.6975C17.1538 23.5396 16.696 24.6723 16.7027 25.8498C16.7095 27.0273 17.1802 28.1547 18.0128 28.9873C18.8455 29.8199 19.9728 30.2907 21.1503 30.2974C22.3278 30.3042 23.4605 29.8464 24.3026 29.0233L25.5893 27.7367C25.7411 27.5795 25.8251 27.369 25.8232 27.1505C25.8213 26.932 25.7337 26.723 25.5792 26.5685C25.4246 26.414 25.2156 26.3263 24.9971 26.3244C24.7786 26.3225 24.5681 26.4065 24.411 26.5583L23.1243 27.845C22.597 28.3666 21.8846 28.6583 21.1429 28.6562C20.4012 28.6542 19.6904 28.3587 19.166 27.8342C18.6415 27.3097 18.346 26.599 18.3439 25.8572C18.3419 25.1155 18.6335 24.4032 19.1551 23.8758L20.4418 22.5892Z" fill="#8E98A4"/>
<path d="M21.8374 25.1666C21.9937 25.3229 22.2056 25.4106 22.4266 25.4106C22.6475 25.4106 22.8594 25.3229 23.0157 25.1666L28.1666 20.0158C28.2461 19.9389 28.3096 19.847 28.3533 19.7453C28.397 19.6436 28.42 19.5343 28.4209 19.4236C28.4219 19.313 28.4008 19.2033 28.3589 19.1008C28.317 18.9984 28.2551 18.9054 28.1769 18.8271C28.0986 18.7489 28.0056 18.687 27.9032 18.6451C27.8008 18.6032 27.691 18.5821 27.5804 18.5831C27.4697 18.5841 27.3604 18.607 27.2587 18.6507C27.157 18.6944 27.0651 18.7579 26.9882 18.8375L21.8374 23.9841C21.7594 24.0616 21.6975 24.1537 21.6553 24.2552C21.6131 24.3567 21.5913 24.4655 21.5913 24.5754C21.5913 24.6853 21.6131 24.7941 21.6553 24.8956C21.6975 24.9971 21.7594 25.0892 21.8374 25.1666Z" fill="#8E98A4"/>
<path opacity="0.5" d="M53.846 24.83H49.59L48.806 27H47.462L50.99 17.298H52.46L55.974 27H54.63L53.846 24.83ZM53.482 23.794L51.718 18.866L49.954 23.794H53.482ZM57.0356 23.136C57.0356 22.352 57.1943 21.666 57.5116 21.078C57.8289 20.4807 58.2629 20.0187 58.8136 19.692C59.3736 19.3653 59.9989 19.202 60.6896 19.202C61.2869 19.202 61.8423 19.342 62.3556 19.622C62.8689 19.8927 63.2609 20.252 63.5316 20.7V16.64H64.8196V27H63.5316V25.558C63.2796 26.0153 62.9063 26.3933 62.4116 26.692C61.9169 26.9813 61.3383 27.126 60.6756 27.126C59.9943 27.126 59.3736 26.958 58.8136 26.622C58.2629 26.286 57.8289 25.8147 57.5116 25.208C57.1943 24.6013 57.0356 23.9107 57.0356 23.136ZM63.5316 23.15C63.5316 22.5713 63.4149 22.0673 63.1816 21.638C62.9483 21.2087 62.6309 20.882 62.2296 20.658C61.8376 20.4247 61.4036 20.308 60.9276 20.308C60.4516 20.308 60.0176 20.42 59.6256 20.644C59.2336 20.868 58.9209 21.1947 58.6876 21.624C58.4543 22.0533 58.3376 22.5573 58.3376 23.136C58.3376 23.724 58.4543 24.2373 58.6876 24.676C58.9209 25.1053 59.2336 25.4367 59.6256 25.67C60.0176 25.894 60.4516 26.006 60.9276 26.006C61.4036 26.006 61.8376 25.894 62.2296 25.67C62.6309 25.4367 62.9483 25.1053 63.1816 24.676C63.4149 24.2373 63.5316 23.7287 63.5316 23.15ZM66.4965 23.136C66.4965 22.352 66.6552 21.666 66.9725 21.078C67.2899 20.4807 67.7239 20.0187 68.2745 19.692C68.8345 19.3653 69.4599 19.202 70.1505 19.202C70.7479 19.202 71.3032 19.342 71.8165 19.622C72.3299 19.8927 72.7219 20.252 72.9925 20.7V16.64H74.2805V27H72.9925V25.558C72.7405 26.0153 72.3672 26.3933 71.8725 26.692C71.3779 26.9813 70.7992 27.126 70.1365 27.126C69.4552 27.126 68.8345 26.958 68.2745 26.622C67.7239 26.286 67.2899 25.8147 66.9725 25.208C66.6552 24.6013 66.4965 23.9107 66.4965 23.136ZM72.9925 23.15C72.9925 22.5713 72.8759 22.0673 72.6425 21.638C72.4092 21.2087 72.0919 20.882 71.6905 20.658C71.2985 20.4247 70.8645 20.308 70.3885 20.308C69.9125 20.308 69.4785 20.42 69.0865 20.644C68.6945 20.868 68.3819 21.1947 68.1485 21.624C67.9152 22.0533 67.7985 22.5573 67.7985 23.136C67.7985 23.724 67.9152 24.2373 68.1485 24.676C68.3819 25.1053 68.6945 25.4367 69.0865 25.67C69.4785 25.894 69.9125 26.006 70.3885 26.006C70.8645 26.006 71.2985 25.894 71.6905 25.67C72.0919 25.4367 72.4092 25.1053 72.6425 24.676C72.8759 24.2373 72.9925 23.7287 72.9925 23.15ZM86.7739 19.328L82.1539 30.612H80.8379L82.3499 26.916L79.2559 19.328H80.6699L83.0779 25.544L85.4579 19.328H86.7739ZM91.4006 27.126C90.6819 27.126 90.0286 26.9627 89.4406 26.636C88.8619 26.3093 88.4046 25.8473 88.0686 25.25C87.7419 24.6433 87.5786 23.9433 87.5786 23.15C87.5786 22.366 87.7466 21.6753 88.0826 21.078C88.4279 20.4713 88.8946 20.0093 89.4826 19.692C90.0706 19.3653 90.7286 19.202 91.4566 19.202C92.1846 19.202 92.8426 19.3653 93.4306 19.692C94.0186 20.0093 94.4806 20.4667 94.8166 21.064C95.1619 21.6613 95.3346 22.3567 95.3346 23.15C95.3346 23.9433 95.1572 24.6433 94.8026 25.25C94.4572 25.8473 93.9859 26.3093 93.3886 26.636C92.7912 26.9627 92.1286 27.126 91.4006 27.126ZM91.4006 26.006C91.8579 26.006 92.2872 25.8987 92.6886 25.684C93.0899 25.4693 93.4119 25.1473 93.6546 24.718C93.9066 24.2887 94.0326 23.766 94.0326 23.15C94.0326 22.534 93.9112 22.0113 93.6686 21.582C93.4259 21.1527 93.1086 20.8353 92.7166 20.63C92.3246 20.4153 91.8999 20.308 91.4426 20.308C90.9759 20.308 90.5466 20.4153 90.1546 20.63C89.7719 20.8353 89.4639 21.1527 89.2306 21.582C88.9972 22.0113 88.8806 22.534 88.8806 23.15C88.8806 23.7753 88.9926 24.3027 89.2166 24.732C89.4499 25.1613 89.7579 25.4833 90.1406 25.698C90.5232 25.9033 90.9432 26.006 91.4006 26.006ZM103.814 19.328V27H102.54V25.866C102.297 26.258 101.956 26.566 101.518 26.79C101.088 27.0047 100.612 27.112 100.09 27.112C99.4923 27.112 98.9556 26.9907 98.4796 26.748C98.0036 26.496 97.6256 26.1227 97.3456 25.628C97.075 25.1333 96.9396 24.5313 96.9396 23.822V19.328H98.1996V23.654C98.1996 24.41 98.391 24.9933 98.7736 25.404C99.1563 25.8053 99.679 26.006 100.342 26.006C101.023 26.006 101.56 25.796 101.952 25.376C102.344 24.956 102.54 24.3447 102.54 23.542V19.328H103.814ZM107.239 20.574C107.463 20.1353 107.78 19.7947 108.191 19.552C108.611 19.3093 109.119 19.188 109.717 19.188V20.504H109.381C107.953 20.504 107.239 21.2787 107.239 22.828V27H105.965V19.328H107.239V20.574ZM116.166 17.242V23.416C116.166 24.284 116.376 24.928 116.796 25.348C117.225 25.768 117.818 25.978 118.574 25.978C119.32 25.978 119.904 25.768 120.324 25.348C120.753 24.928 120.968 24.284 120.968 23.416V17.242H122.242V23.402C122.242 24.214 122.078 24.9 121.752 25.46C121.425 26.0107 120.982 26.4213 120.422 26.692C119.871 26.9627 119.25 27.098 118.56 27.098C117.869 27.098 117.244 26.9627 116.684 26.692C116.133 26.4213 115.694 26.0107 115.368 25.46C115.05 24.9 114.892 24.214 114.892 23.402V17.242H116.166ZM129.505 27L127.181 23.01H125.641V27H124.367V17.242H127.517C128.254 17.242 128.875 17.368 129.379 17.62C129.892 17.872 130.275 18.2127 130.527 18.642C130.779 19.0713 130.905 19.5613 130.905 20.112C130.905 20.784 130.709 21.3767 130.317 21.89C129.934 22.4033 129.356 22.744 128.581 22.912L131.031 27H129.505ZM125.641 21.988H127.517C128.208 21.988 128.726 21.82 129.071 21.484C129.416 21.1387 129.589 20.6813 129.589 20.112C129.589 19.5333 129.416 19.0853 129.071 18.768C128.735 18.4507 128.217 18.292 127.517 18.292H125.641V21.988ZM134.159 25.964H137.575V27H132.885V17.242H134.159V25.964Z" fill="#2C2C2C"/>
</svg>
