<svg width="20" height="14" viewBox="0 0 20 14" fill="none" xmlns="http://www.w3.org/2000/svg">
<path d="M9.99998 9.72419C11.5045 9.72419 12.7242 8.50452 12.7242 6.99998C12.7242 5.49543 11.5045 4.27576 9.99998 4.27576C8.49543 4.27576 7.27576 5.49543 7.27576 6.99998C7.27576 8.50452 8.49543 9.72419 9.99998 9.72419Z" fill="#8E98A4"/>
<path d="M19.7699 6.25038C17.4274 2.78124 13.7137 0.749991 10 0.775382C6.28634 0.749991 2.57267 2.78124 0.230088 6.25038C0.080224 6.47165 0.00012207 6.73275 0.00012207 6.99999C0.00012207 7.26723 0.080224 7.52834 0.230088 7.7496C2.57267 11.2187 6.28634 13.25 10 13.2246C13.7137 13.25 17.4274 11.2187 19.7699 7.7496C19.9198 7.52834 19.9999 7.26723 19.9999 6.99999C19.9999 6.73275 19.9198 6.47165 19.7699 6.25038ZM10 11.2086C9.16763 11.2086 8.35394 10.9618 7.66184 10.4993C6.96974 10.0369 6.43031 9.37957 6.11177 8.61055C5.79324 7.84153 5.70989 6.99532 5.87228 6.17893C6.03467 5.36255 6.4355 4.61265 7.02408 4.02407C7.61267 3.43548 8.36257 3.03465 9.17895 2.87226C9.99534 2.70987 10.8415 2.79322 11.6106 3.11176C12.3796 3.4303 13.0369 3.96972 13.4993 4.66182C13.9618 5.35392 14.2086 6.16761 14.2086 6.99999C14.2086 8.11618 13.7652 9.18665 12.9759 9.97592C12.1867 10.7652 11.1162 11.2086 10 11.2086Z" fill="#8E98A4"/>
</svg>
