<svg width="128" height="128" viewBox="0 0 128 128" fill="none" xmlns="http://www.w3.org/2000/svg">
<g clip-path="url(#clip0_307_695)">
<path d="M127.986 46.3163V115.713C127.986 119.272 126.471 122.477 124.053 124.721C121.858 126.756 118.923 127.999 115.697 127.999H12.2871C9.06151 127.999 6.12597 126.756 3.93456 124.723C1.51562 122.477 0.000976562 119.272 0.000976562 115.713V46.3163H127.986Z" fill="#FEC970"/>
<path d="M127.985 46.3166L78.7909 5.35473C70.2167 -1.78491 57.7685 -1.78491 49.1943 5.35473L0 46.3166H0.000976561L14.5 58.3888L49.1943 87.2765C57.7694 94.4181 70.2177 94.4181 78.7899 87.2765L113.487 58.3888L127.986 46.3166" fill="#FBA028"/>
<path d="M113.487 20.7529V58.3886L78.7899 87.2762C70.2177 94.4178 57.7695 94.4178 49.1943 87.2762L14.5 58.3886V20.7529C14.5 12.9062 20.8623 6.54395 28.7109 6.54395H99.2782C107.127 6.54395 113.487 12.9062 113.487 20.7529Z" fill="#BFDADD"/>
<path d="M113.487 20.7529V49.7685L78.7899 78.6571C70.2177 85.7977 57.7695 85.7977 49.1943 78.6571L14.5 49.7685V20.7529C14.5 12.9062 20.8623 6.54395 28.7109 6.54395H99.2782C107.127 6.54395 113.487 12.9062 113.487 20.7529Z" fill="#E4F5F7"/>
<path d="M92.7245 56.2256H35.2627C34.1807 56.2256 33.3037 55.3486 33.3037 54.2666C33.3037 53.1855 34.1807 52.3076 35.2627 52.3076H92.7245C93.8066 52.3076 94.6835 53.1855 94.6835 54.2666C94.6835 55.3486 93.8066 56.2256 92.7245 56.2256Z" fill="#4B5051"/>
<path d="M92.7245 67.6035H35.2627C34.1807 67.6035 33.3037 66.7266 33.3037 65.6445C33.3037 64.5625 34.1807 63.6855 35.2627 63.6855H92.7245C93.8066 63.6855 94.6835 64.5625 94.6835 65.6445C94.6835 66.7266 93.8066 67.6035 92.7245 67.6035Z" fill="#4B5051"/>
<path d="M92.7245 33.4717H35.2627C34.1807 33.4717 33.3037 32.5947 33.3037 31.5127C33.3037 30.4307 34.1807 29.5537 35.2627 29.5537H92.7245C93.8066 29.5537 94.6835 30.4307 94.6835 31.5127C94.6835 32.5947 93.8066 33.4717 92.7245 33.4717Z" fill="#4B5051"/>
<path d="M92.7245 44.8486H35.2627C34.1807 44.8486 33.3037 43.9717 33.3037 42.8896C33.3037 41.8076 34.1807 40.9307 35.2627 40.9307H92.7245C93.8066 40.9307 94.6835 41.8076 94.6835 42.8896C94.6835 43.9717 93.8066 44.8486 92.7245 44.8486Z" fill="#4B5051"/>
<path d="M125.374 27.4257C125.374 42.5009 113.153 54.7216 98.0791 54.7216C83.0039 54.7216 70.7832 42.5009 70.7832 27.4257C70.7832 12.3515 83.0039 0.130859 98.0791 0.130859C113.153 0.130859 125.374 12.3515 125.374 27.4257Z" fill="#26BF64"/>
<path d="M125.374 27.4257C125.374 41.7109 114.404 53.4306 100.431 54.622C86.4541 53.4306 75.4863 41.7109 75.4863 27.4257C75.4863 13.1435 86.4541 1.42383 100.431 0.233398C114.404 1.42383 125.374 13.1435 125.374 27.4257Z" fill="#49D685"/>
<path d="M97.9483 44.2187C97.3751 44.2187 96.8243 43.9658 96.4493 43.5195L85.089 29.9912C84.3937 29.1621 84.5011 27.9267 85.3292 27.2314C86.1583 26.5351 87.3936 26.6435 88.089 27.4717L97.4024 38.5625L107.902 14.0625C108.328 13.0684 109.481 12.6074 110.475 13.0342C111.469 13.46 111.93 14.6113 111.503 15.6064L99.7491 43.0312C99.4815 43.6572 98.9083 44.0986 98.2354 44.1972C98.1397 44.2119 98.044 44.2187 97.9483 44.2187Z" fill="white"/>
<path d="M116.057 120.025C115.615 120.025 115.171 119.877 114.805 119.572L83.5674 93.5643C82.7363 92.872 82.624 91.6366 83.3154 90.8056C84.0078 89.9745 85.2431 89.8612 86.0742 90.5536L117.31 116.56C118.142 117.253 118.256 118.487 117.563 119.319C117.176 119.785 116.618 120.025 116.057 120.025Z" fill="#FBA028"/>
<path d="M44.3574 93.616L18.6865 115.543C15.1504 118.564 16.7314 124.339 21.3144 125.136C28.6865 126.417 37.3007 127.854 39.6171 128H12.2881C9.06151 128 6.12597 126.757 3.93456 124.724C1.51562 122.478 0.000976562 119.273 0.000976562 115.714V46.3163H9.27635V93.6219C9.36522 103.184 20.5752 108.316 27.9257 102.199L41.912 90.5525C42.7587 89.8504 44.0253 89.9783 44.7099 90.8533C45.371 91.6961 45.1796 92.9314 44.3574 93.616Z" fill="#FBA028"/>
</g>
<defs>
<clipPath id="clip0_307_695">
<rect width="128" height="128" fill="white"/>
</clipPath>
</defs>
</svg>
