<svg width="24" height="24" viewBox="0 0 24 24" fill="none" xmlns="http://www.w3.org/2000/svg">
<path d="M17.8124 12C17.8134 13.3678 17.3315 14.6921 16.4518 15.7395C15.5721 16.787 14.3509 17.4903 13.0035 17.7257C11.6561 17.9611 10.2688 17.7134 9.08608 17.0262C7.90336 16.3391 7.00109 15.2566 6.53822 13.9694L3.21362 16.6291C4.24739 18.5942 5.90978 20.1563 7.93535 21.0659C9.96092 21.9755 12.2329 22.1802 14.3884 21.6473C16.5439 21.1144 18.4588 19.8746 19.8271 18.1259C21.1955 16.3772 21.9385 14.2204 21.9374 12" fill="#00AC47"/>
<path d="M17.8125 12C17.8117 12.9248 17.59 13.8359 17.1658 14.6577C16.7416 15.4794 16.1272 16.1878 15.3738 16.724L18.6606 19.3534C19.6912 18.4255 20.5155 17.2915 21.08 16.0247C21.6445 14.758 21.9366 13.3868 21.9375 12" fill="#4285F4"/>
<path d="M6.1875 12C6.18894 11.3282 6.30764 10.6617 6.53827 10.0306L3.21367 7.37097C2.45774 8.79686 2.0625 10.3862 2.0625 12C2.0625 13.6139 2.45774 15.2032 3.21367 16.6291L6.53827 13.9695C6.30764 13.3384 6.18894 12.6719 6.1875 12Z" fill="#FFBA00"/>
<path d="M11.9999 6.18751C13.2298 6.18785 14.4275 6.58088 15.4184 7.30936L18.4634 4.46738C17.3331 3.4928 15.9973 2.78608 14.5556 2.39995C13.1139 2.01382 11.6037 1.95826 10.1375 2.23741C8.6714 2.51656 7.28723 3.12322 6.08833 4.01211C4.88943 4.901 3.90675 6.04916 3.21362 7.37093L6.53822 10.0306C6.94368 8.90661 7.68544 7.93477 8.66264 7.24717C9.63984 6.55957 10.8051 6.18959 11.9999 6.18751Z" fill="#EA4435"/>
<path d="M21.9375 11.25V12L20.25 14.625H12.375V10.5H21.1875C21.3864 10.5 21.5772 10.579 21.7178 10.7197C21.8585 10.8603 21.9375 11.0511 21.9375 11.25Z" fill="#4285F4"/>
</svg>
