<svg width="12" height="12" viewBox="0 0 12 12" fill="none" xmlns="http://www.w3.org/2000/svg">
<g clip-path="url(#clip0_743_4019)">
<path d="M9.1875 3.1875C8.39672 3.1875 7.68234 3.51375 7.17141 4.03898L6.49031 4.73906L7.22672 5.49586L7.92797 4.77492C8.24742 4.44656 8.69414 4.24219 9.1875 4.24219C10.1566 4.24219 10.9453 5.03086 10.9453 6.00023C10.9453 6.96938 10.1566 7.75805 9.1875 7.75805C8.69414 7.75805 8.24742 7.55367 7.92797 7.22508C5.17322 4.39327 4.83267 4.04318 4.82859 4.03898C4.31766 3.51375 3.60328 3.1875 2.8125 3.1875C1.2593 3.1875 0 4.4468 0 6.00023C0 7.55344 1.2593 8.81273 2.8125 8.81273C3.60328 8.81273 4.31766 8.48648 4.82859 7.96125L5.50969 7.26117L4.77328 6.50438L4.07203 7.22508C3.75258 7.55367 3.30586 7.75805 2.8125 7.75805C1.84336 7.75805 1.05469 6.96938 1.05469 6.00023C1.05469 5.03086 1.84336 4.24219 2.8125 4.24219C3.30586 4.24219 3.75258 4.44656 4.07203 4.77492C4.19276 4.89905 7.14244 7.93148 7.17141 7.96125C7.68234 8.48648 8.39672 8.81273 9.1875 8.81273C10.7407 8.81273 12 7.55344 12 6.00023C12 4.4468 10.7407 3.1875 9.1875 3.1875Z" fill="#FABC04"/>
</g>
<defs>
<clipPath id="clip0_743_4019">
<rect width="12" height="12" fill="white"/>
</clipPath>
</defs>
</svg>
