<svg width="20" height="20" viewBox="0 0 20 20" fill="none" xmlns="http://www.w3.org/2000/svg">
<path d="M14.5582 9.41085C14.4786 9.48773 14.4151 9.57968 14.3714 9.68135C14.3277 9.78302 14.3047 9.89237 14.3038 10.003C14.3028 10.1137 14.3239 10.2234 14.3658 10.3258C14.4077 10.4282 14.4696 10.5213 14.5478 10.5995C14.6261 10.6778 14.7191 10.7396 14.8215 10.7815C14.9239 10.8234 15.0337 10.8445 15.1443 10.8436C15.255 10.8426 15.3643 10.8196 15.466 10.7759C15.5677 10.7323 15.6596 10.6688 15.7365 10.5892L17.0232 9.30252C17.8462 8.4604 18.304 7.32772 18.2973 6.15022C18.2905 4.97272 17.8198 3.84536 16.9871 3.01272C16.1545 2.18009 15.0271 1.70933 13.8496 1.70259C12.6721 1.69584 11.5394 2.15365 10.6973 2.97669L9.41066 4.26335C9.33107 4.34023 9.26758 4.43218 9.22391 4.53385C9.18023 4.63552 9.15724 4.74487 9.15628 4.85552C9.15532 4.96617 9.17641 5.0759 9.21831 5.17832C9.26021 5.28073 9.32208 5.37377 9.40033 5.45202C9.47857 5.53026 9.57162 5.59214 9.67403 5.63404C9.77644 5.67594 9.88618 5.69702 9.99682 5.69606C10.1075 5.6951 10.2168 5.67211 10.3185 5.62844C10.4202 5.58476 10.5121 5.52128 10.589 5.44169L11.8757 4.15502C12.1358 3.89206 12.4453 3.6831 12.7864 3.54015C13.1275 3.39721 13.4936 3.3231 13.8634 3.32209C14.2333 3.32108 14.5997 3.39318 14.9416 3.53426C15.2835 3.67533 15.5942 3.8826 15.8557 4.14413C16.1172 4.40567 16.3245 4.71632 16.4656 5.05823C16.6067 5.40014 16.6788 5.76656 16.6778 6.13642C16.6767 6.50629 16.6026 6.87231 16.4597 7.21344C16.3167 7.55457 16.1078 7.86408 15.8448 8.12419L14.5582 9.41085Z" fill="#8E98A4"/>
<path d="M5.44181 10.5892C5.5214 10.5123 5.58489 10.4203 5.62856 10.3187C5.67223 10.217 5.69522 10.1077 5.69618 9.99701C5.69715 9.88636 5.67606 9.77663 5.63416 9.67421C5.59226 9.5718 5.53038 9.47876 5.45214 9.40051C5.37389 9.32227 5.28085 9.26039 5.17844 9.21849C5.07602 9.17659 4.96629 9.1555 4.85564 9.15646C4.74499 9.15743 4.63564 9.18041 4.53397 9.22409C4.4323 9.26776 4.34035 9.33125 4.26347 9.41084L2.97681 10.6975C2.15377 11.5396 1.69596 12.6723 1.70271 13.8498C1.70946 15.0273 2.18021 16.1547 3.01285 16.9873C3.84548 17.8199 4.97284 18.2907 6.15034 18.2974C7.32784 18.3042 8.46052 17.8464 9.30264 17.0233L10.5893 15.7367C10.7411 15.5795 10.8251 15.369 10.8232 15.1505C10.8213 14.932 10.7337 14.723 10.5792 14.5685C10.4246 14.414 10.2156 14.3263 9.99714 14.3244C9.77864 14.3225 9.56814 14.4065 9.41097 14.5583L8.12431 15.845C7.59698 16.3666 6.88462 16.6583 6.1429 16.6562C5.40119 16.6542 4.69044 16.3587 4.16597 15.8342C3.6415 15.3097 3.34595 14.599 3.34393 13.8572C3.3419 13.1155 3.63355 12.4032 4.15514 11.8758L5.44181 10.5892Z" fill="#8E98A4"/>
<path d="M6.83739 13.1666C6.99366 13.3229 7.20558 13.4106 7.42655 13.4106C7.64752 13.4106 7.85945 13.3229 8.01572 13.1666L13.1666 8.01581C13.2461 7.93894 13.3096 7.84698 13.3533 7.74531C13.397 7.64364 13.42 7.53429 13.4209 7.42364C13.4219 7.31299 13.4008 7.20326 13.3589 7.10085C13.317 6.99843 13.2551 6.90539 13.1769 6.82715C13.0986 6.7489 13.0056 6.68702 12.9032 6.64512C12.8008 6.60322 12.691 6.58214 12.5804 6.5831C12.4697 6.58406 12.3604 6.60705 12.2587 6.65072C12.157 6.6944 12.0651 6.75788 11.9882 6.83748L6.83739 11.9841C6.75941 12.0616 6.69752 12.1537 6.65528 12.2552C6.61305 12.3567 6.59131 12.4655 6.59131 12.5754C6.59131 12.6853 6.61305 12.7941 6.65528 12.8956C6.69752 12.9971 6.75941 13.0892 6.83739 13.1666Z" fill="#8E98A4"/>
</svg>
