<svg width="16" height="16" viewBox="0 0 16 16" fill="none" xmlns="http://www.w3.org/2000/svg">
<g clip-path="url(#clip0_732_5491)">
<path d="M5.83301 11.7413V14.8333C5.83301 15.0493 5.97167 15.2407 6.17701 15.3087C6.22834 15.3253 6.28101 15.3333 6.33301 15.3333C6.48901 15.3333 6.63967 15.26 6.73567 15.1293L8.54434 12.668L5.83301 11.7413Z" fill="white"/>
<path d="M15.79 0.0927257C15.6367 -0.0159409 15.4354 -0.0306076 15.2687 0.0567257L0.268696 7.89006C0.091363 7.98273 -0.0133037 8.17206 0.00136299 8.37139C0.0166963 8.57139 0.149363 8.74206 0.33803 8.80673L4.50803 10.2321L13.3887 2.63873L6.5167 10.9181L13.5054 13.3067C13.5574 13.3241 13.612 13.3334 13.6667 13.3334C13.7574 13.3334 13.8474 13.3087 13.9267 13.2607C14.0534 13.1834 14.1394 13.0534 14.1614 12.9074L15.9947 0.574059C16.022 0.387392 15.9434 0.202059 15.79 0.0927257Z" fill="white"/>
</g>
<defs>
<clipPath id="clip0_732_5491">
<rect width="20" height="20" fill="white"/>
</clipPath>
</defs>
</svg>
