<svg width="24" height="24" viewBox="0 0 24 24" fill="none" xmlns="http://www.w3.org/2000/svg">
<path d="M13.4136 11.9996L18.7066 6.70659C18.8021 6.61434 18.8783 6.504 18.9307 6.38199C18.9831 6.25999 19.0107 6.12877 19.0118 5.99599C19.013 5.86321 18.9877 5.73153 18.9374 5.60864C18.8871 5.48574 18.8128 5.37409 18.719 5.28019C18.6251 5.1863 18.5134 5.11205 18.3905 5.06177C18.2676 5.01149 18.1359 4.98619 18.0032 4.98734C17.8704 4.98849 17.7392 5.01608 17.6172 5.06849C17.4952 5.1209 17.3848 5.19708 17.2926 5.29259L11.9996 10.5856L6.70659 5.29259C6.51799 5.11043 6.26538 5.00964 6.00319 5.01192C5.74099 5.01419 5.49018 5.11936 5.30477 5.30477C5.11936 5.49018 5.01419 5.74099 5.01191 6.00319C5.00964 6.26539 5.11043 6.51799 5.29259 6.70659L10.5856 11.9996L5.29259 17.2926C5.19708 17.3849 5.1209 17.4952 5.06849 17.6172C5.01608 17.7392 4.98849 17.8704 4.98734 18.0032C4.98618 18.136 5.01149 18.2677 5.06177 18.3906C5.11205 18.5135 5.1863 18.6251 5.28019 18.719C5.37409 18.8129 5.48574 18.8872 5.60864 18.9374C5.73153 18.9877 5.86321 19.013 5.99599 19.0119C6.12877 19.0107 6.25999 18.9831 6.38199 18.9307C6.504 18.8783 6.61434 18.8021 6.70659 18.7066L11.9996 13.4136L17.2926 18.7066C17.4812 18.8888 17.7338 18.9896 17.996 18.9873C18.2582 18.985 18.509 18.8798 18.6944 18.6944C18.8798 18.509 18.985 18.2582 18.9872 17.996C18.9895 17.7338 18.8887 17.4812 18.7066 17.2926L13.4136 11.9996Z" fill="#8E98A4"/>
</svg>
